<?xml version="1.0" encoding="UTF-8"?>
<svg version="1.1" xmlns="http://www.w3.org/2000/svg" width="2004" height="252">
<path d="M0 0 C1.56037994 -0.01279495 1.56037994 -0.01279495 3.15228271 -0.02584839 C4.29313324 -0.02494202 5.43398376 -0.02403564 6.60940552 -0.02310181 C7.81125488 -0.02981903 9.01310425 -0.03653625 10.25137329 -0.04345703 C13.54902402 -0.05921679 16.84642291 -0.06581305 20.14409399 -0.0670886 C22.89752808 -0.06898791 25.65093801 -0.07634585 28.4043628 -0.08343279 C34.90143376 -0.0997204 41.3984493 -0.10460144 47.89553833 -0.10317993 C54.59563516 -0.10197861 61.2954098 -0.12307735 67.99542511 -0.15466726 C73.74924702 -0.18082833 79.50296371 -0.1915473 85.25684464 -0.19026911 C88.69271614 -0.18975939 92.1283014 -0.19544771 95.56411362 -0.21662521 C99.397047 -0.23960515 103.22953945 -0.23048768 107.06253052 -0.21841431 C108.19933258 -0.22965332 109.33613464 -0.24089233 110.50738525 -0.25247192 C118.19788292 -0.1907874 118.19788292 -0.1907874 122.15916443 2.17424011 C125.99854236 6.62365784 125.14861903 12.10772476 125.15286255 17.70492554 C125.16510864 18.55119507 125.17735474 19.3974646 125.18997192 20.26937866 C125.2090698 28.39870772 125.2090698 28.39870772 122.96536255 32.26742554 C119.66786508 34.46575718 118.6791542 34.52091218 114.84806824 34.53485107 C113.78954147 34.54338104 112.73101471 34.55191101 111.64041138 34.56069946 C110.47928833 34.55979309 109.31816528 34.55888672 108.12185669 34.55795288 C106.28741249 34.56802872 106.28741249 34.56802872 104.41590881 34.57830811 C101.06047717 34.59406784 97.705293 34.60066407 94.34984136 34.60193968 C91.54909195 34.60383861 88.74836631 34.61119598 85.94762605 34.61828387 C79.3403261 34.63457079 72.73308066 34.63945251 66.12576294 34.63803101 C59.30863297 34.63682911 52.49181936 34.65793943 45.67476946 34.68951833 C39.82245044 34.71566275 33.97023486 34.7263991 28.11785787 34.72512019 C24.62221656 34.72461005 21.12685644 34.73032121 17.63127327 34.75147629 C13.73347714 34.77442155 9.83611567 34.76534896 5.93826294 34.75326538 C4.77916412 34.76450439 3.62006531 34.77574341 2.42584229 34.787323 C1.3644957 34.77893402 0.30314911 34.77054504 -0.7903595 34.76190186 C-2.17273505 34.76353616 -2.17273505 34.76353616 -3.58303738 34.76520348 C-6.81520363 34.10893777 -7.99301905 32.80553685 -10.03463745 30.26742554 C-11.46191332 25.98559792 -11.25911514 21.87797117 -11.28463745 17.39242554 C-11.30526245 16.49394897 -11.32588745 15.59547241 -11.34713745 14.66976929 C-11.37628251 9.73696732 -11.3476087 6.21512492 -8.03463745 2.26742554 C-4.75592648 0.08161823 -3.80139253 0.01407607 0 0 Z " fill="#000000" transform="translate(49.034637451171875,37.732574462890625)"/>
<path d="M0 0 C1.2688076 -0.00744736 1.2688076 -0.00744736 2.56324768 -0.01504517 C5.37453011 -0.0296996 8.18575588 -0.03647852 10.99707031 -0.04199219 C12.95607504 -0.0477463 14.91507976 -0.053504 16.87408447 -0.05926514 C20.99337018 -0.06978808 25.11263633 -0.07562051 29.23193359 -0.07910156 C34.47690555 -0.08455214 39.72161339 -0.10850031 44.96650314 -0.13707352 C49.0212068 -0.15583479 53.07584898 -0.16091288 57.13059235 -0.16243744 C59.06163203 -0.16544033 60.99267125 -0.17338763 62.92366791 -0.18662262 C84.06699149 -0.32104737 102.39899276 2.42185225 118.34472656 17.55175781 C127.68875573 27.40715176 132.96346182 39.58230207 133.82519531 53.16113281 C133.90447266 54.22847656 133.90447266 54.22847656 133.98535156 55.31738281 C134.55148235 70.08601202 130.59324751 84.35620847 121.26269531 95.91113281 C116.27384939 101.21903283 110.09297503 104.58566887 103.82519531 108.16113281 C102.83519531 108.82113281 101.84519531 109.48113281 100.82519531 110.16113281 C106.43027972 119.26319466 112.16988642 128.25302036 118.1262207 137.12939453 C122.1355646 143.10958576 126.08750514 149.12538597 130.01269531 155.16113281 C130.57770752 156.02834961 131.14271973 156.89556641 131.72485352 157.7890625 C132.50735474 158.9941748 132.50735474 158.9941748 133.30566406 160.22363281 C133.7686792 160.93648437 134.23169434 161.64933594 134.70874023 162.38378906 C137.05424006 166.11771399 137.20740667 168.7274811 136.82519531 173.16113281 C134.46777618 176.36048736 132.64603302 177.43769109 128.82519531 178.16113281 C125.20333426 178.40650628 121.57955228 178.39220527 117.95019531 178.41113281 C116.96921875 178.43175781 115.98824219 178.45238281 114.97753906 178.47363281 C105.20005921 178.52641273 105.20005921 178.52641273 100.82519531 175.16113281 C98.20906317 171.99974611 96.0118056 168.62948877 93.82519531 165.16113281 C93.20580078 164.17870605 92.58640625 163.1962793 91.94824219 162.18408203 C89.97009048 159.00102866 88.01970175 155.80233933 86.07519531 152.59863281 C80.50176197 143.46278871 74.82640979 134.40621924 68.96191406 125.45410156 C66.82519531 122.16113281 66.82519531 122.16113281 65.79785156 119.49951172 C64.10697446 117.02951982 64.10697446 117.02951982 61.89619446 116.68824768 C59.29539681 116.48257489 56.73494809 116.44301055 54.12597656 116.45410156 C53.17579147 116.43898026 52.22560638 116.42385895 51.24662781 116.40827942 C48.21007803 116.36527207 45.17451979 116.35655183 42.13769531 116.34863281 C40.079726 116.32549866 38.02178045 116.30013559 35.96386719 116.27246094 C30.91755508 116.20947967 25.87186596 116.17724627 20.82519531 116.16113281 C20.83185715 116.83907394 20.83851898 117.51701508 20.84538269 118.21549988 C20.91175684 125.27195493 20.95700478 132.32832128 20.98999023 139.38500977 C21.00507588 142.01850995 21.02554697 144.65198502 21.05151367 147.28540039 C21.0879055 151.07086385 21.10492422 154.85599508 21.11816406 158.64160156 C21.13364792 159.818853 21.14913177 160.99610443 21.16508484 162.20903015 C21.16531143 163.30979385 21.16553802 164.41055756 21.16577148 165.54467773 C21.17243332 166.51064377 21.17909515 167.4766098 21.18595886 168.47184753 C20.75549995 171.68067177 19.70971838 173.55085196 17.82519531 176.16113281 C13.41370428 178.88032002 8.41169065 178.49297075 3.38769531 178.47363281 C2.55431641 178.48974609 1.7209375 178.50585938 0.86230469 178.52246094 C-4.21936586 178.52647807 -7.80786098 178.04318067 -12.17480469 175.16113281 C-14.67042103 171.4177083 -14.45642278 168.50601062 -14.43359375 164.1730957 C-14.43709839 163.35978287 -14.44060303 162.54647003 -14.44421387 161.70851135 C-14.45302464 159.01685072 -14.44718381 156.32545243 -14.44042969 153.63378906 C-14.44177666 151.76435801 -14.44371746 149.89492729 -14.44622803 148.02549744 C-14.44917851 144.10558745 -14.44488455 140.18576855 -14.43554688 136.26586914 C-14.42416027 131.24081947 -14.43070727 126.21598361 -14.4426918 121.19094181 C-14.44991915 117.32964976 -14.44761831 113.46840837 -14.44243622 109.60711479 C-14.44110174 107.75434786 -14.4427404 105.90157634 -14.44739532 104.04881477 C-14.45247402 101.45860742 -14.44473108 98.86874604 -14.43359375 96.27856445 C-14.43764221 95.51219666 -14.44169067 94.74582886 -14.44586182 93.95623779 C-14.39222792 87.22350741 -14.39222792 87.22350741 -12.17480469 84.16113281 C-8.45338517 81.68018647 -5.57401157 81.86846166 -1.26611328 81.87402344 C-0.05819122 81.86377388 -0.05819122 81.86377388 1.1741333 81.85331726 C2.92397899 81.83972378 4.67386449 81.83067402 6.42375565 81.8256073 C9.19901564 81.81731632 11.97394686 81.79680586 14.74911499 81.77307129 C20.64942618 81.72481046 26.54977061 81.69193911 32.45019531 81.66113281 C39.26850901 81.62539479 46.08666405 81.58326906 52.90482712 81.52519226 C55.62835612 81.50523744 58.35176131 81.49682465 61.0753479 81.4888916 C62.76361527 81.47590524 64.45187863 81.46238291 66.14013672 81.44824219 C67.26272385 81.44971504 67.26272385 81.44971504 68.4079895 81.45121765 C78.53700236 81.33398767 86.91599314 79.07033499 94.20019531 71.78613281 C98.34885529 65.08445131 98.23566168 58.69120327 96.82519531 51.16113281 C95.51800268 47.7923451 95.51800268 47.7923451 93.82519531 45.16113281 C93.51582031 44.41863281 93.20644531 43.67613281 92.88769531 42.91113281 C91.48398927 40.59914639 90.32935582 40.17633302 87.82519531 39.16113281 C86.69082031 38.64550781 85.55644531 38.12988281 84.38769531 37.59863281 C78.74340632 35.32111269 73.65084751 35.00828802 67.61010742 34.98754883 C66.79650253 34.98086182 65.98289764 34.9741748 65.14463806 34.96728516 C63.38388987 34.95327326 61.62312393 34.94136705 59.86234856 34.93133736 C57.07577381 34.914881 54.28933142 34.89164359 51.50282288 34.86643982 C43.58227151 34.79577512 35.66166802 34.73545755 27.7409668 34.68432617 C22.8916505 34.65254768 18.04249025 34.61128268 13.19330025 34.56413078 C11.34614423 34.54811315 9.49895235 34.53579048 7.65174675 34.52722359 C5.07129917 34.51507837 2.49121943 34.49093426 -0.08911133 34.46411133 C-1.23394989 34.46322762 -1.23394989 34.46322762 -2.4019165 34.46232605 C-9.11354293 34.36981536 -9.11354293 34.36981536 -12.17480469 32.16113281 C-15.20677865 27.61317187 -14.54323108 23.13705259 -14.54980469 17.78613281 C-14.57429687 16.74457031 -14.59878906 15.70300781 -14.62402344 14.62988281 C-14.65345184 6.95887807 -14.65345184 6.95887807 -12.27636719 2.99707031 C-8.39203269 -0.39630741 -4.93890737 0.00687521 0 0 Z " fill="#000000" transform="translate(238.1748046875,37.8388671875)"/>
<path d="M0 0 C1.63388672 -0.04930664 1.63388672 -0.04930664 3.30078125 -0.09960938 C4.88052734 -0.11024414 4.88052734 -0.11024414 6.4921875 -0.12109375 C7.45237793 -0.13454834 8.41256836 -0.14800293 9.40185547 -0.16186523 C13.47025506 0.73359119 14.75778787 1.99728193 17.125 5.4375 C17.85980119 9.26167415 17.8256681 13.02161294 17.7890625 16.90625 C17.79384613 18.01931519 17.79862976 19.13238037 17.80355835 20.2791748 C17.80695643 22.62932755 17.79776063 24.97952762 17.77685547 27.32958984 C17.75009136 30.92522662 17.77660934 34.51774148 17.80859375 38.11328125 C17.80528964 40.39844439 17.79888339 42.68360558 17.7890625 44.96875 C17.79918365 46.04282104 17.80930481 47.11689209 17.81973267 48.22351074 C17.7030108 55.66298232 17.7030108 55.66298232 14.77099609 59.59179688 C9.91271275 62.9806714 5.50842119 62.65310953 -0.1875 62.6875 C-1.02990234 62.708125 -1.87230469 62.72875 -2.74023438 62.75 C-7.82183483 62.78178483 -11.59338345 62.49105599 -15.875 59.4375 C-18.68411729 54.62634458 -18.18076767 49.24142268 -18.17578125 43.84375 C-18.18006638 42.81946899 -18.1843515 41.79518799 -18.18876648 40.73986816 C-18.19449979 38.57805113 -18.19501742 36.41621481 -18.19067383 34.25439453 C-18.1875112 30.94920979 -18.21099529 27.64491809 -18.23632812 24.33984375 C-18.23860096 22.23698029 -18.23930469 20.13411444 -18.23828125 18.03125 C-18.247491 17.04467407 -18.25670074 16.05809814 -18.26618958 15.04162598 C-18.20774196 6.36699778 -18.20774196 6.36699778 -14.875 2.4375 C-10.22629509 -0.66163661 -5.46954228 0.02892237 0 0 Z " fill="#000000" transform="translate(441.875,37.5625)"/>
<path d="M0 0 C21.44094588 4.73297475 40.21392962 16.98979043 52.25 35.4609375 C62.08204283 51.23884023 62.08204283 51.23884023 61.375 58.5859375 C60.09427557 62.34806551 58.87032799 63.77577351 55.375 65.5234375 C51.2775007 65.84697817 47.17118877 65.84791142 43.0625 65.8984375 C41.35030273 65.95451172 41.35030273 65.95451172 39.60351562 66.01171875 C31.20032698 66.10012167 31.20032698 66.10012167 27.2890625 63.3671875 C25.3723822 60.5195482 23.65435088 57.68993919 22.0625 54.6484375 C15.01539866 42.270447 4.26387442 37.3824802 -9.05859375 33.61328125 C-12.09606036 32.32339817 -12.93665784 31.32740436 -14.625 28.5234375 C-15.2693004 24.56810733 -15.13447856 20.58825983 -15.125 16.5859375 C-15.15335938 15.50119141 -15.18171875 14.41644531 -15.2109375 13.29882812 C-15.23046176 5.35733725 -15.23046176 5.35733725 -12.28515625 1.30078125 C-8.02943609 -1.54261475 -4.89216411 -0.88816075 0 0 Z " fill="#000000" transform="translate(615.625,38.4765625)"/>
<path d="M0 0 C0.80714951 -0.00525696 1.61429901 -0.01051392 2.44590759 -0.01593018 C5.11664161 -0.02913885 7.7867793 -0.02038086 10.45751953 -0.01025391 C12.32398594 -0.01227636 14.19045157 -0.01518923 16.05691528 -0.01895142 C19.97600806 -0.02337758 23.8948959 -0.0169416 27.81396484 -0.00292969 C32.80110224 0.01404402 37.78775102 0.00439851 42.77486992 -0.01364708 C46.63572753 -0.02457865 50.49647281 -0.020994 54.35733414 -0.0132637 C56.19346298 -0.01128128 58.02960247 -0.01365102 59.86571884 -0.02070236 C81.86551667 -0.08657125 99.83670168 3.74153904 116.21533203 19.32568359 C127.7052556 31.29340596 131.36186764 47.31276419 131.17236328 63.57568359 C130.26510378 80.28295292 124.39144994 94.96516252 111.96533203 106.38818359 C98.78610341 117.60922966 83.19479223 120.64350925 66.39892578 120.80224609 C65.1242897 120.82161224 63.84965363 120.84097839 62.53639221 120.8609314 C59.17785934 120.91030776 55.81942806 120.95169041 52.46075439 120.98907471 C49.02142854 121.02936695 45.58226198 121.08034303 42.14306641 121.13037109 C35.41725807 121.22606596 28.69137929 121.31121041 21.96533203 121.38818359 C21.9616864 122.03076111 21.95804077 122.67333862 21.95428467 123.33538818 C21.91249797 130.01904564 21.84317914 136.70201392 21.7578125 143.38525391 C21.72957404 145.87997548 21.70837391 148.37478701 21.69433594 150.86962891 C21.67294704 154.45440826 21.62631495 158.03810277 21.57470703 161.62255859 C21.57286407 163.29774567 21.57286407 163.29774567 21.57098389 165.0067749 C21.55126526 166.04755188 21.53154663 167.08832886 21.51123047 168.16064453 C21.4979068 169.53298248 21.4979068 169.53298248 21.48431396 170.93304443 C20.80305588 174.15586067 19.49937376 175.34556539 16.96533203 177.38818359 C12.68350441 178.81545947 8.57587767 178.61266129 4.09033203 178.63818359 C2.74261719 178.66912109 2.74261719 178.66912109 1.36767578 178.70068359 C-7.18908547 178.75124053 -7.18908547 178.75124053 -11.03466797 175.38818359 C-14.07542936 171.31892002 -14.46668274 167.87076106 -14.42285156 162.93920898 C-14.42810852 162.20684525 -14.43336548 161.47448151 -14.43878174 160.71992493 C-14.45194339 158.30834376 -14.44325671 155.89742729 -14.43310547 153.48583984 C-14.43512753 151.80341974 -14.43804008 150.12100049 -14.44180298 148.43858337 C-14.44622131 144.91559489 -14.43981199 141.39283492 -14.42578125 137.86987305 C-14.40870272 133.36286981 -14.41852503 128.85640309 -14.43649864 124.34941959 C-14.44736105 120.87576792 -14.44387867 117.40224253 -14.43611526 113.92858696 C-14.43411936 112.26726658 -14.43655106 110.60593459 -14.44355392 108.94462776 C-14.45120758 106.61829581 -14.43950982 104.29282116 -14.42285156 101.96655273 C-14.42892426 101.28532349 -14.43499695 100.60409424 -14.44125366 99.90222168 C-14.38126178 95.36001462 -13.58231605 92.16548262 -11.03466797 88.38818359 C-7.01206189 85.89358021 -2.70025214 86.10692417 1.90161133 86.1328125 C3.07830132 86.12738182 3.07830132 86.12738182 4.27876282 86.12184143 C5.9772952 86.11496466 7.6758496 86.11243877 9.37439537 86.1137886 C12.0702889 86.11475714 14.76578727 86.10177133 17.46162415 86.08480835 C25.12485672 86.03864672 32.78804913 86.01395217 40.45141602 86.00732422 C45.14523699 86.00228659 49.83864647 85.9779205 54.53232765 85.94199753 C56.31312391 85.93224911 58.09397714 85.92984029 59.8747921 85.93516922 C75.38217935 86.03468868 75.38217935 86.03468868 88.90283203 79.01318359 C94.2570274 72.19875313 95.78448966 64.95899949 94.96533203 56.38818359 C93.6986206 49.55008882 91.61341072 43.69241365 85.96533203 39.38818359 C76.44755417 35.02140256 67.00308446 34.83253863 56.74279785 34.90232849 C54.09364164 34.91982451 51.44555391 34.91196186 48.79638672 34.89807129 C43.18595883 34.87294704 37.57579309 34.8782119 31.96533203 34.88818359 C25.43011008 34.89973558 18.89541533 34.89858007 12.36026001 34.86412048 C9.75590125 34.85704383 7.15238757 34.87366848 4.5480957 34.89123535 C2.95279486 34.88552909 1.35749748 34.87871261 -0.23779297 34.87060547 C-0.95680283 34.88192001 -1.67581268 34.89323456 -2.41661072 34.90489197 C-5.96474944 34.86180257 -7.93034052 34.45391076 -10.95947266 32.54553223 C-14.99086801 28.35454104 -14.21806663 23.47616683 -14.22216797 18.01318359 C-14.23441406 17.16240234 -14.24666016 16.31162109 -14.25927734 15.43505859 C-14.28207036 5.67964843 -14.28207036 5.67964843 -10.45944214 1.78207397 C-7.04271049 -0.18204683 -3.83377464 -0.03069646 0 0 Z " fill="#000000" transform="translate(739.03466796875,37.61181640625)"/>
<path d="M0 0 C1.83691406 -0.00773437 1.83691406 -0.00773437 3.7109375 -0.015625 C5.61746094 0.00757813 5.61746094 0.00757813 7.5625 0.03125 C8.83351563 0.01578125 10.10453125 0.0003125 11.4140625 -0.015625 C12.63867188 -0.01046875 13.86328125 -0.0053125 15.125 0 C16.79755859 0.00676758 16.79755859 0.00676758 18.50390625 0.01367188 C22.48440935 0.68725637 23.82393204 1.53290135 26.5625 4.53125 C28.44538324 7.93617567 29.90669243 11.48389553 31.37890625 15.08203125 C31.82779205 16.14676666 32.27667786 17.21150208 32.73916626 18.3085022 C34.21409488 21.81496312 35.66936737 25.32924027 37.125 28.84375 C38.15456972 31.30017851 39.18531475 33.75607289 40.21801758 36.21118164 C42.06469028 40.60490636 43.90682147 45.00047735 45.74262905 49.39875317 C49.95616612 59.4931915 54.23910717 69.55758382 58.53359985 79.61779785 C60.56392967 84.37640725 62.58835534 89.13752671 64.61328125 93.8984375 C65.42527357 95.8069744 66.23728545 97.71550298 67.04931641 99.62402344 C69.25216449 104.80171994 71.45483556 109.97949174 73.65748596 115.15727234 C75.47904619 119.43912952 77.30074686 123.72092694 79.12246704 128.00271606 C80.39583277 130.99580963 81.66898996 133.98899185 82.94213867 136.98217773 C83.33803696 137.91230179 83.73393524 138.84242584 84.14183044 139.80073547 C84.90569565 141.59693982 85.66823935 143.39370684 86.42933655 145.19108582 C88.07184997 149.0644912 89.72942331 152.92712134 91.46191406 156.76123047 C91.74712921 157.3999559 92.03234436 158.03868134 92.32620239 158.69676208 C93.06602688 160.34711287 93.81782872 161.99208079 94.57080078 163.63647461 C95.70946745 166.9602488 96.10220754 169.04698666 95.5625 172.53125 C91.73531037 178.25500763 91.73531037 178.25500763 87.3687439 179.28350353 C85.54918686 179.28494853 85.54918686 179.28494853 83.69287109 179.28642273 C83.01425711 179.29507711 82.33564312 179.30373149 81.63646507 179.31264812 C79.36879167 179.33419249 77.10358359 179.31297054 74.8359375 179.29174805 C73.20785349 179.29824306 71.579778 179.30730537 69.95172119 179.31874084 C65.53416973 179.34181678 61.1174825 179.32710637 56.6999588 179.30427146 C52.07648999 179.28535435 47.45307916 179.29651396 42.82958984 179.30317688 C35.06529007 179.30951724 27.30133651 179.29124887 19.53710938 179.25854492 C10.56134117 179.22105037 1.58622883 179.22282908 -7.38957405 179.2455861 C-16.02499628 179.26653652 -24.66017616 179.25926039 -33.29559326 179.23926735 C-36.97018354 179.2312819 -40.6445688 179.23327213 -44.31915283 179.24329185 C-48.64665991 179.25384424 -52.97340287 179.23971325 -57.30078888 179.20654869 C-58.88865329 179.19834179 -60.47658771 179.1986252 -62.0644455 179.20802689 C-64.23310873 179.219457 -66.39939708 179.20007626 -68.56787109 179.17289734 C-69.78090912 179.16971339 -70.99394714 179.16652945 -72.2437439 179.16324902 C-76.3651444 178.34768234 -77.86611067 176.78975537 -80.4375 173.53125 C-81.34721124 167.71187583 -79.49275823 163.16256949 -77.25 157.90625 C-76.95802734 157.16890625 -76.66605469 156.4315625 -76.36523438 155.671875 C-74.4388348 151.04851603 -72.40859987 147.75506669 -68.4375 144.53125 C-65.5250301 143.56732523 -62.83545228 143.39744368 -59.78045654 143.37303162 C-58.38387314 143.35834839 -58.38387314 143.35834839 -56.95907593 143.34336853 C-55.94487579 143.33761307 -54.93067566 143.3318576 -53.88574219 143.32592773 C-52.27552689 143.31107834 -52.27552689 143.31107834 -50.63278198 143.29592896 C-47.08333545 143.26433278 -43.53387553 143.23956384 -39.984375 143.21484375 C-37.5238612 143.19427261 -35.06335092 143.17327609 -32.60284424 143.15187073 C-26.12559867 143.09666665 -19.64832129 143.04724996 -13.17102051 142.99902344 C-6.56190153 142.94879632 0.04717124 142.89311656 6.65625 142.83789062 C19.62496026 142.73032938 32.59370998 142.6286947 45.5625 142.53125 C44.96535187 141.09819267 44.96535187 141.09819267 44.35614014 139.63618469 C42.4821876 135.13897972 40.60827323 130.64175885 38.734375 126.14453125 C38.39347588 125.32639765 38.05257675 124.50826405 37.70134735 123.66533852 C33.40926422 113.36455189 29.11794164 103.0634495 24.828125 92.76171875 C23.56904093 89.73851268 22.30992041 86.7153218 21.05078125 83.69213867 C20.20365828 81.65800802 19.35665893 79.62382589 18.50976562 77.58959961 C17.24121789 74.54266741 15.97221558 71.49592488 14.703125 68.44921875 C14.14072113 67.09790108 14.14072113 67.09790108 13.56695557 65.71928406 C11.59160906 60.97836762 9.59516719 56.24788549 7.5625 51.53125 C-0.79767887 70.56982811 -8.8836311 89.71029821 -16.78686523 108.94311523 C-17.14021439 109.80082016 -17.49356354 110.65852509 -17.85762024 111.54222107 C-18.51967747 113.14960698 -19.17987642 114.75776012 -19.83781433 116.36683655 C-25.1800755 129.32993449 -25.1800755 129.32993449 -28.4375 131.53125 C-33.05334506 132.18624645 -37.71800334 131.99429961 -42.375 131.96875 C-43.66341797 131.98873047 -44.95183594 132.00871094 -46.27929688 132.02929688 C-47.51615234 132.02865234 -48.75300781 132.02800781 -50.02734375 132.02734375 C-51.16034912 132.02919678 -52.29335449 132.0310498 -53.46069336 132.03295898 C-57.12316744 131.41568807 -58.26710522 130.51087967 -60.4375 127.53125 C-62.13965084 123.07850179 -60.88136294 120.13137619 -59.1875 115.80859375 C-58.78748779 114.78353981 -58.78748779 114.78353981 -58.37939453 113.73777771 C-54.48370734 103.90964984 -50.19468635 94.23765316 -45.95361328 84.55526733 C-43.37736859 78.67330867 -40.81422196 72.78564497 -38.25 66.8984375 C-37.7456543 65.74133774 -37.24130859 64.58423798 -36.72167969 63.39207458 C-32.03004431 52.61856697 -27.42300752 41.81060355 -22.86328125 30.98071289 C-21.89248785 28.67714882 -20.91742481 26.37537806 -19.9375 24.07568359 C-18.83497019 21.47045447 -17.75485193 18.8602356 -16.6875 16.24072266 C-16.08375468 14.79181655 -15.47959566 13.34308274 -14.875 11.89453125 C-14.6061499 11.219561 -14.3372998 10.54459076 -14.06030273 9.84916687 C-11.06972989 2.77474711 -7.68141708 0.03108088 0 0 Z " fill="#000000" transform="translate(978.4375,37.46875)"/>
<path d="M0 0 C1.23685547 -0.03738281 2.47371094 -0.07476562 3.74804688 -0.11328125 C12.82942091 -0.20159283 12.82942091 -0.20159283 16.640625 2.359375 C17.31609375 3.35453125 17.9915625 4.3496875 18.6875 5.375 C19.70492615 6.70213733 20.72466954 8.0274998 21.74609375 9.3515625 C22.87668686 10.89791346 24.00275391 12.44758067 25.125 14 C26.3735831 15.71102129 27.62228431 17.4219564 28.87109375 19.1328125 C29.82218018 20.44040527 29.82218018 20.44040527 30.79248047 21.77441406 C33.74070014 25.82033469 36.71465183 29.84716197 39.6875 33.875 C40.85430565 35.45823091 42.02097195 37.04156454 43.1875 38.625 C43.765 39.40875 44.3425 40.1925 44.9375 41 C51.35416667 49.70833333 57.77083333 58.41666667 64.1875 67.125 C65.05411255 68.3011084 65.05411255 68.3011084 65.93823242 69.50097656 C67.1024799 71.08103832 68.26670523 72.66111639 69.4309082 74.24121094 C72.3844052 78.24973491 75.33831111 82.25795644 78.29296875 86.265625 C78.8869043 87.0714502 79.48083984 87.87727539 80.09277344 88.70751953 C81.26871319 90.30260932 82.44513526 91.89734366 83.62207031 93.49169922 C86.41096172 97.27231978 89.18869584 101.06012285 91.94140625 104.8671875 C92.44841064 105.56618164 92.95541504 106.26517578 93.4777832 106.98535156 C94.42644628 108.2946621 95.37178947 109.60638679 96.31323242 110.92089844 C98.54574552 114.14788931 98.54574552 114.14788931 101.6875 116.375 C101.68289104 115.80754468 101.67828207 115.24008936 101.67353344 114.65543842 C101.56307 100.84246629 101.48067062 87.02957163 101.42843914 73.21625233 C101.40233186 66.53615151 101.3669122 59.85643106 101.31030273 53.17651367 C101.25602507 46.73150687 101.22608793 40.28680667 101.21311378 33.84158897 C101.20386644 31.38114278 101.18580872 28.92071359 101.15884972 26.46039772 C101.12261764 23.01725466 101.11755246 19.57538272 101.11987305 16.13208008 C101.10189667 15.11212448 101.08392029 14.09216888 101.06539917 13.04130554 C101.0999391 8.31335783 101.13309933 6.10847014 104.05476379 2.24311829 C107.06516795 0.10701705 108.59146911 -0.26728553 112.25 -0.2890625 C113.29414062 -0.29550781 114.33828125 -0.30195312 115.4140625 -0.30859375 C116.49429687 -0.28925781 117.57453125 -0.26992188 118.6875 -0.25 C120.30785156 -0.27900391 120.30785156 -0.27900391 121.9609375 -0.30859375 C129.82671547 -0.26003956 129.82671547 -0.26003956 133.875 2.7265625 C136.70692222 6.86458678 136.81423058 9.9062736 136.82121277 14.81430054 C136.82347833 15.47078791 136.82574388 16.12727529 136.82807809 16.80365622 C136.83441783 19.00763105 136.83358874 21.21154439 136.83276367 23.41552734 C136.83575519 24.9940448 136.8391577 26.57256152 136.84294128 28.15107727 C136.85178646 32.4424247 136.85411962 36.7337522 136.85475707 41.02510786 C136.85570596 44.60614725 136.85938404 48.18718199 136.86292917 51.76821959 C136.87107577 60.21657587 136.87351322 68.66492149 136.87280273 77.11328125 C136.87220194 85.8309376 136.88275361 94.54853208 136.8985464 103.26617277 C136.91161825 110.74820573 136.91698678 118.23021846 136.91634732 125.71226275 C136.91609222 130.18203125 136.91895005 134.65174478 136.92952538 139.12150192 C136.93920032 143.32560567 136.93928969 147.52960182 136.93200874 151.73370934 C136.93096214 153.27644317 136.93333031 154.81918368 136.9393692 156.36190605 C136.94708151 158.46864154 136.94244959 160.57500477 136.93473816 162.68173218 C136.93528293 163.86049612 136.93582769 165.03926006 136.93638897 166.25374413 C136.6240217 170.17106585 135.75382855 173.0768609 133.25 176.125 C128.95871733 179.55802614 122.99962649 178.55916208 117.8125 178.5625 C116.81863281 178.57474609 115.82476563 178.58699219 114.80078125 178.59960938 C113.83785156 178.60154297 112.87492187 178.60347656 111.8828125 178.60546875 C111.00641113 178.60957764 110.13000977 178.61368652 109.22705078 178.61791992 C102.91172942 178.01382987 99.97119268 174.97616881 96.03515625 170.36328125 C92.13544133 165.39941783 88.55987116 160.21640447 84.95703125 155.03515625 C81.63730455 150.27390323 78.20587604 145.60049355 74.75 140.9375 C70.1894358 134.77792316 65.6637131 128.59616597 61.1875 122.375 C56.72741728 116.17836797 52.22500756 110.01515924 47.6875 103.875 C43.14998989 97.73483731 38.64783424 91.57145339 34.1875 85.375 C27.42766251 75.98719227 20.56332656 66.67803505 13.6875 57.375 C6.65352478 47.85798885 -0.36934667 38.33357807 -7.3125 28.75 C-7.82820557 28.04029053 -8.34391113 27.33058105 -8.87524414 26.59936523 C-10.36761459 24.53366022 -11.84327687 22.45722304 -13.3125 20.375 C-13.87509521 19.58754395 -14.43769043 18.80008789 -15.01733398 17.98876953 C-15.84213257 16.80323486 -15.84213257 16.80323486 -16.68359375 15.59375 C-17.43660767 14.52157227 -17.43660767 14.52157227 -18.20483398 13.42773438 C-19.3125 11.375 -19.3125 11.375 -19.375 7.5 C-16.26550289 -1.64557973 -8.25007274 0.09370243 0 0 Z " fill="#000000" transform="translate(1135.3125,37.625)"/>
<path d="M0 0 C0.75852768 -0.00554901 1.51705536 -0.01109802 2.29856873 -0.01681519 C4.80198778 -0.02860587 7.30359252 -0.00432412 9.80688477 0.02148438 C11.5598187 0.02319732 13.3127552 0.02312793 15.06568909 0.0213623 C18.74358586 0.02301581 22.42087339 0.04170314 26.09863281 0.07324219 C30.77527892 0.11265638 35.45111782 0.11731808 40.12789822 0.10977936 C43.7528857 0.10668199 47.3776974 0.11893172 51.00264168 0.13591003 C52.72432409 0.14286741 54.44602644 0.14607355 56.1677227 0.1452179 C80.22276057 0.16336461 101.90655938 6.20493824 119.83813477 23.05664062 C140.07693475 43.99884282 145.79052248 68.13083862 145.52172852 96.65429688 C145.01197956 120.27266492 134.73763185 141.9172331 117.79956055 158.26318359 C103.02946876 171.67688781 83.2508671 178.74455636 63.43530273 178.77636719 C62.68153351 178.78133209 61.92776428 178.786297 61.15115356 178.79141235 C58.680919 178.80590763 56.21074845 178.81281175 53.74047852 178.81835938 C52.89259892 178.82118675 52.04471931 178.82401413 51.17114639 178.82692719 C46.69148705 178.84186215 42.21185949 178.85112977 37.73217773 178.85546875 C33.11084855 178.86097057 28.48981143 178.88505059 23.86857414 178.9134407 C20.30664208 178.93206587 16.74478076 178.93727243 13.18280411 178.93880463 C11.47877517 178.94182778 9.77474737 178.94984495 8.07076645 178.96298981 C5.68944663 178.98006141 3.30884656 178.97816857 0.92749023 178.97167969 C0.22710632 178.98089447 -0.47327759 178.99010925 -1.19488525 178.99960327 C-5.52230112 178.96270008 -8.24397415 178.26170928 -11.68920898 175.61523438 C-13.80393987 171.3857726 -13.00728494 165.88730654 -13.06420898 161.24023438 C-13.1015918 160.09039062 -13.13897461 158.94054687 -13.17749023 157.75585938 C-13.1890918 156.64984375 -13.20069336 155.54382813 -13.21264648 154.40429688 C-13.24237549 152.88376709 -13.24237549 152.88376709 -13.27270508 151.33251953 C-12.68920898 148.61523438 -12.68920898 148.61523438 -10.60562134 146.47654724 C-6.95720346 144.14805377 -4.75289769 144.11638476 -0.44311523 144.11694336 C0.26825089 144.11142456 0.979617 144.10590576 1.71253967 144.10021973 C3.25226081 144.09092038 4.79205887 144.09077754 6.33178711 144.09881401 C8.78090378 144.11149701 11.22890168 144.10010238 13.67797852 144.08277893 C18.00655728 144.0560798 22.334861 144.05048209 26.66351318 144.05187988 C33.56197732 144.05410658 40.46009664 144.03956277 47.35842896 143.99629402 C49.7495594 143.98657696 52.1401323 143.99511452 54.53125 144.00498962 C69.03956408 143.98604278 81.82421468 142.13742703 93.06079102 132.17773438 C93.80329102 131.33210937 94.54579102 130.48648438 95.31079102 129.61523438 C95.79032227 129.12667969 96.26985352 128.638125 96.76391602 128.13476562 C107.84272206 116.35654 110.10137674 100.12114466 109.65844727 84.59960938 C108.91655635 70.69779672 103.71029051 56.24081763 93.31079102 46.61523438 C83.487632 38.64114058 72.33309399 35.50676706 59.82421875 35.47338867 C59.09985626 35.46991425 58.37549377 35.46643982 57.62918091 35.46286011 C56.06597589 35.45554347 54.50276075 35.45017645 52.93954277 35.44656944 C50.46344081 35.43936307 47.98753234 35.42366827 45.51148987 35.40522766 C38.47497099 35.35293513 31.4385648 35.30475072 24.40185547 35.28930664 C20.08940426 35.27922372 15.77745101 35.24990194 11.46519661 35.20798683 C9.82541736 35.19568675 8.18556781 35.19055377 6.54574394 35.19278526 C4.25261064 35.1951394 1.96090847 35.17296953 -0.33203125 35.14526367 C-1.63519791 35.13939743 -2.93836456 35.13353119 -4.28102112 35.12748718 C-8.2429716 34.5320035 -9.91501942 33.46024608 -12.68920898 30.61523438 C-13.33618164 27.94555664 -13.33618164 27.94555664 -13.35327148 24.93164062 C-13.3597168 23.83916016 -13.36616211 22.74667969 -13.37280273 21.62109375 C-13.3534668 20.48478516 -13.33413086 19.34847656 -13.31420898 18.17773438 C-13.33354492 17.04529297 -13.35288086 15.91285156 -13.37280273 14.74609375 C-13.36635742 13.65232422 -13.35991211 12.55855469 -13.35327148 11.43164062 C-13.34763184 10.43592041 -13.34199219 9.4402002 -13.33618164 8.41430664 C-11.69847864 1.32892367 -6.54026126 -0.12250607 0 0 Z " fill="#000000" transform="translate(1428.689208984375,37.384765625)"/>
<path d="M0 0 C1.04032379 -0.0071553 2.08064758 -0.01431061 3.15249634 -0.02168274 C4.29851318 -0.02437164 5.44453003 -0.02706055 6.62527466 -0.02983093 C7.82858429 -0.03640213 9.03189392 -0.04297333 10.27166748 -0.04974365 C13.57751022 -0.06609802 16.88328893 -0.07770515 20.18915701 -0.08594918 C22.25392629 -0.09109863 24.31869108 -0.09717435 26.38345718 -0.10346031 C32.8419444 -0.12251135 39.30042017 -0.13674341 45.75893009 -0.14507228 C53.21757061 -0.15484947 60.67591474 -0.18118152 68.13445079 -0.22157317 C73.89756585 -0.25171393 79.66059583 -0.26653914 85.42378819 -0.26985329 C88.8669271 -0.27220588 92.30974934 -0.2811928 95.7528038 -0.30631447 C99.59320362 -0.33388285 103.43321196 -0.32977029 107.27371216 -0.32279968 C108.41568054 -0.33560974 109.55764893 -0.3484198 110.73422241 -0.36161804 C111.78018585 -0.35467422 112.82614929 -0.34773041 113.90380859 -0.34057617 C114.81194242 -0.34296453 115.72007626 -0.34535288 116.65572929 -0.34781361 C119.84524344 0.30371636 121.02944218 1.67882456 123.07888794 4.14717102 C125.06572191 8.12083897 124.35144922 13.0903754 124.39138794 17.45967102 C124.42039185 18.50574524 124.44939575 19.55181946 124.47927856 20.6295929 C124.48765747 21.64215149 124.49603638 22.65471008 124.50466919 23.69795227 C124.52654297 25.08494324 124.52654297 25.08494324 124.54885864 26.49995422 C123.87377951 30.30249087 123.02730366 31.5762207 120.07888794 34.14717102 C116.07594903 34.92797024 112.09714256 34.82942033 108.03005981 34.79414368 C106.79719742 34.80290527 105.56433502 34.81166687 104.29411316 34.82069397 C100.91555119 34.83893242 97.53851994 34.83465653 94.16004372 34.81879854 C90.62381566 34.80613448 87.08765276 34.81788103 83.55142212 34.82572937 C77.61302961 34.83482455 71.67494807 34.82284183 65.73660278 34.79902649 C58.8721835 34.771815 52.00850673 34.78062929 45.14410543 34.80815852 C39.24925429 34.83085268 33.3546266 34.83404832 27.45974588 34.82096517 C23.93951656 34.81317216 20.41963619 34.81212437 16.89942932 34.82864761 C12.97523157 34.84578068 9.05186467 34.82203147 5.12771606 34.79414368 C3.96083755 34.80426483 2.79395905 34.81438599 1.59172058 34.82481384 C-6.26253185 34.72115715 -6.26253185 34.72115715 -9.64181519 31.77593994 C-11.08378866 28.81289428 -11.43681019 26.83734687 -11.45236206 23.54951477 C-11.45751831 22.50086243 -11.46267456 21.45221008 -11.46798706 20.3717804 C-11.45251831 19.2870343 -11.43704956 18.20228821 -11.42111206 17.08467102 C-11.43658081 15.99605774 -11.45204956 14.90744446 -11.46798706 13.7858429 C-11.46283081 12.73847961 -11.45767456 11.69111633 -11.45236206 10.61201477 C-11.44785034 9.65931702 -11.44333862 8.70661926 -11.43869019 7.72505188 C-10.77704741 4.42963391 -9.48136069 3.25351936 -6.92111206 1.14717102 C-4.43957504 -0.09359749 -2.77689687 0.01307834 0 0 Z " fill="#000000" transform="translate(1635.9211120605469,37.85282897949219)"/>
<path d="M0 0 C0.83121368 -0.00671722 1.66242737 -0.01343445 2.51882935 -0.02035522 C5.27058873 -0.03937529 8.02210472 -0.04326148 10.77392578 -0.04541016 C12.68580222 -0.05183548 14.59767765 -0.05856364 16.509552 -0.06558228 C20.51941202 -0.0775652 24.52918583 -0.08126207 28.5390625 -0.08007812 C33.67626808 -0.07987492 38.81292055 -0.10717406 43.94999504 -0.14162254 C47.89969418 -0.16386527 51.84925968 -0.16791647 55.79901505 -0.16685867 C57.69284089 -0.16921871 59.58667019 -0.17806485 61.48043442 -0.19352341 C64.13057876 -0.21312965 66.77952366 -0.20736669 69.4296875 -0.1953125 C70.2111615 -0.20655151 70.9926355 -0.21779053 71.79779053 -0.22937012 C75.48457963 -0.18677813 77.64887895 0.16903861 80.80764771 2.13339233 C84.95153772 6.52255643 84.06350386 11.97965933 84.09423828 17.66552734 C84.11486328 18.61169922 84.13548828 19.55787109 84.15673828 20.53271484 C84.20705128 29.48842797 84.20705128 29.48842797 80.84423828 33.29052734 C78.02450887 34.97588124 75.89481319 35.54885003 72.62646484 35.609375 C71.39564178 35.63917953 71.39564178 35.63917953 70.13995361 35.66958618 C68.8256839 35.68691299 68.8256839 35.68691299 67.48486328 35.70458984 C66.58048523 35.72395599 65.67610718 35.74332214 64.74432373 35.76327515 C61.86105729 35.82296566 58.97775071 35.8694142 56.09423828 35.91552734 C54.1371898 35.95371681 52.18015795 35.99276911 50.22314453 36.03271484 C45.43031117 36.12865859 40.63739913 36.21272861 35.84423828 36.29052734 C36.17948013 37.12752167 36.51472198 37.96451599 36.86012268 38.82687378 C40.05224032 46.7970608 43.24348247 54.7675977 46.43379307 62.73850822 C48.07315314 66.83432251 49.71282662 70.93001068 51.35327148 75.02539062 C52.94263367 78.99327843 54.53110069 82.9615236 56.11900139 86.92999649 C56.71857132 88.42801246 57.31843941 89.92590914 57.91864204 91.42367172 C58.77302055 93.55587463 59.62644617 95.68845509 60.47924805 97.82128906 C60.88881917 98.84518643 60.88881917 98.84518643 61.30666447 99.8897686 C62.82309821 103.69232748 64.31699415 107.50272412 65.79000854 111.32232666 C66.11044852 112.15252382 66.4308885 112.98272099 66.76103878 113.83807564 C67.3811661 115.44819878 67.9988982 117.05924694 68.61396885 118.67130852 C69.77931957 122.24783517 69.77931957 122.24783517 71.84423828 125.29052734 C73.99196099 119.93711696 76.13736602 114.58278063 78.28173828 109.22802734 C78.62293701 108.37616852 78.96413574 107.52430969 79.31567383 106.64663696 C84.02136236 94.89413943 88.70427301 83.13275716 93.36522102 71.36245537 C94.19410417 69.26932246 95.02322503 67.17628385 95.85240173 65.08326721 C99.16200668 56.72885634 99.16200668 56.72885634 102.46676636 48.37252808 C105.46735135 40.77923612 108.47857945 33.1904604 111.51464844 25.61126709 C112.37138356 23.47151371 113.22543398 21.33068247 114.07617188 19.1885376 C115.15321002 16.48427243 116.24557351 13.78684496 117.34423828 11.09130859 C117.64628174 10.32586227 117.9483252 9.56041595 118.25952148 8.77177429 C119.83971189 4.95196917 121.03435799 2.13641802 124.84423828 0.29052734 C129.13238546 -0.36154702 133.44925621 -0.21890648 137.78173828 -0.20947266 C139.55194336 -0.25201172 139.55194336 -0.25201172 141.35791016 -0.29541016 C149.95638629 -0.31487473 149.95638629 -0.31487473 154.09814453 2.50927734 C155.88325608 5.35267649 156.48015641 6.99237396 156.84423828 10.29052734 C156.26538086 12.65087891 156.26538086 12.65087891 155.23876953 15.18115234 C154.64563965 16.66941528 154.64563965 16.66941528 154.04052734 18.18774414 C153.58387695 19.2941626 153.12722656 20.40058105 152.65673828 21.54052734 C152.17043945 22.74813721 151.68414063 23.95574707 151.18310547 25.19995117 C149.7473298 28.76173122 148.29337482 32.31586957 146.83624268 35.86895752 C145.42356769 39.31742119 144.01838065 42.76892311 142.6125946 46.22019958 C139.75842645 53.22691345 136.90026281 60.23198222 134.03491211 67.23413086 C127.76233513 82.56481837 121.53497994 97.9133925 115.33843994 113.27493286 C113.85717819 116.94595825 112.37401449 120.61621091 110.890625 124.28637695 C106.84584346 134.30210196 102.81076912 144.31967917 98.89892578 154.38818359 C98.34044687 155.81767183 97.7818592 157.24711757 97.22314453 158.67651367 C96.26015738 161.14135473 95.31489759 163.6105419 94.37939453 166.08618164 C92.25845528 171.52866325 90.59116323 175.74170805 85.84423828 179.29052734 C81.17335473 180.8056744 76.32862214 180.51390058 71.46923828 180.54052734 C70.06931641 180.57146484 70.06931641 180.57146484 68.64111328 180.60302734 C67.73103516 180.60818359 66.82095703 180.61333984 65.88330078 180.61865234 C65.06039551 180.62799805 64.23749023 180.63734375 63.38964844 180.64697266 C59.99850214 180.17209508 57.73950848 179.11719081 54.84423828 177.29052734 C53.13696289 174.8449707 53.13696289 174.8449707 51.80908203 171.94287109 C51.31263184 170.86763184 50.81618164 169.79239258 50.3046875 168.68457031 C47.90606256 163.11023331 45.61607744 157.50503924 43.40673828 151.85302734 C42.62881802 149.88284914 41.84867595 147.91356011 41.06834412 145.94433594 C40.51893641 144.55783463 39.97008596 143.17111239 39.42176819 141.78417969 C36.13365447 133.47430936 32.76969242 125.19532196 29.40673828 116.91552734 C28.76403795 115.33188506 28.12137854 113.74822616 27.47875977 112.16455078 C24.5207887 104.87620843 21.55946362 97.58922861 18.59814453 90.30224609 C18.33842361 89.66313293 18.0787027 89.02401978 17.81111145 88.36553955 C16.25339611 84.53240206 16.25339611 84.53240206 14.69534302 80.69940186 C11.26566747 72.26293504 7.8444869 63.82306843 4.43017578 55.38037109 C4.05027496 54.44111282 3.67037415 53.50185455 3.27896118 52.53413391 C1.40744681 47.90680979 -0.46335724 43.27920054 -2.33300781 38.65112305 C-2.6796347 37.79408279 -3.0262616 36.93704254 -3.38339233 36.05403137 C-4.05666463 34.38849588 -4.72875344 32.72248141 -5.39956665 31.05595398 C-6.81348292 27.55291851 -8.24058465 24.06149153 -9.76513672 20.60498047 C-10.22404297 19.55761719 -10.68294922 18.51025391 -11.15576172 17.43115234 C-11.54763672 16.56522461 -11.93951172 15.69929688 -12.34326172 14.80712891 C-13.54602284 11.08174982 -13.67734986 7.73492529 -12.34326172 4.04052734 C-9.21368056 -0.57148699 -4.98752859 -0.00575484 0 0 Z " fill="#000000" transform="translate(1805.15576171875,37.70947265625)"/>
<path d="M0 0 C2.69990662 1.79993774 4.5418865 3.083773 6 6 C6.241784 9.78645931 6.18519823 13.58168211 6.1875 17.375 C6.19974609 18.42945312 6.21199219 19.48390625 6.22460938 20.5703125 C6.22654297 21.58609375 6.22847656 22.601875 6.23046875 23.6484375 C6.23457764 24.57833496 6.23868652 25.50823242 6.24291992 26.46630859 C5.98681235 29.13754913 5.43098784 30.74526421 4 33 C2.1875 34.0546875 2.1875 34.0546875 0 34.875 C-14.9990539 41.04824405 -24.74301076 49.93549484 -31.3125 64.875 C-37.44671624 81.48740534 -36.22432334 100.65171437 -29.54296875 116.85546875 C-23.12254935 129.94012095 -14.30958566 136.2656331 -1.45898438 142.11010742 C2.39938607 143.92182793 4.52463259 144.9677156 6 149 C6.44423096 152.80134779 6.37026351 156.61278363 6.375 160.4375 C6.39949219 161.47455078 6.42398438 162.51160156 6.44921875 163.58007812 C6.47859543 171.20332572 6.47859543 171.20332572 4.1015625 175.16015625 C0.86744457 177.99151228 0.86744457 177.99151228 -1.99609375 178.01953125 C-20.53705169 176.44725802 -37.60981766 165.73815045 -49.7578125 151.96484375 C-66.73295676 131.59020601 -72.85250608 105.32269832 -70.6875 79.234375 C-68.21889777 54.84874887 -59.03022846 32.50950669 -39.9375 16.5 C-37.98088902 14.97069487 -36.00320249 13.46774674 -34 12 C-33.22527344 11.42765625 -32.45054687 10.8553125 -31.65234375 10.265625 C-26.37525224 6.7535984 -20.71302263 4.66103709 -14.75 2.625 C-13.98091309 2.36170898 -13.21182617 2.09841797 -12.41943359 1.82714844 C-8.18469887 0.4600366 -4.50191377 -0.48163119 0 0 Z " fill="#000000" transform="translate(580,39)"/>
<path d="M0 0 C0.88494141 -0.01160156 1.76988281 -0.02320312 2.68164062 -0.03515625 C7.55448749 -0.01322296 11.0336604 0.13321507 14.9375 3.375 C17.5931167 7.35842505 17.23278854 10.83877766 17.22802734 15.46459961 C17.23474457 16.39495529 17.24146179 17.32531097 17.24838257 18.28385925 C17.26740986 21.36507479 17.27128903 24.44607309 17.2734375 27.52734375 C17.27986169 29.66581818 17.28658976 31.80429172 17.29360962 33.94276428 C17.30559391 38.42760252 17.30928921 42.91236367 17.30810547 47.3972168 C17.30790211 53.14880588 17.3352165 58.89990176 17.36964989 64.65137386 C17.3918674 69.0685504 17.39594461 73.48560724 17.39488602 77.90283394 C17.39724928 80.02356226 17.40611335 82.14429352 17.42155075 84.26496696 C17.44110822 87.22899997 17.43541311 90.19195617 17.42333984 93.15600586 C17.43457886 94.03458252 17.44581787 94.91315918 17.45739746 95.81835938 C17.39566988 101.77055113 17.39566988 101.77055113 15.03213501 104.88868713 C10.20697091 108.31253112 5.3816517 107.63487978 -0.375 107.6875 C-1.94411133 107.73100586 -1.94411133 107.73100586 -3.54492188 107.77539062 C-11.25974716 107.83923068 -11.25974716 107.83923068 -15.23046875 105.54296875 C-18.76660913 101.3584103 -18.21056267 96.86657329 -18.20776367 91.66845703 C-18.21112228 90.77872192 -18.2144809 89.88898682 -18.21794128 88.97229004 C-18.22745402 86.02578339 -18.22939459 83.07933356 -18.23046875 80.1328125 C-18.23368119 78.08641537 -18.23704525 76.04001847 -18.24055481 73.99362183 C-18.24654694 69.70130887 -18.24839463 65.40901606 -18.24780273 61.11669922 C-18.24770113 55.6164635 -18.26135159 50.11635692 -18.27857494 44.61615181 C-18.28969349 40.3885336 -18.29172198 36.16094661 -18.29119301 31.93331528 C-18.29237341 29.90553213 -18.29679855 27.87774817 -18.30452538 25.8499794 C-18.31432188 23.0133383 -18.31144847 20.17697764 -18.30541992 17.34033203 C-18.31103943 16.5027536 -18.31665894 15.66517517 -18.32244873 14.80221558 C-18.29966438 10.58352823 -18.1657422 7.15715074 -16.0625 3.375 C-11.00415908 -0.25054013 -5.97701617 -0.07870248 0 0 Z " fill="#000000" transform="translate(442.0625,108.625)"/>
<path d="M0 0 C0.96597107 -0.00708481 1.93194214 -0.01416962 2.92718506 -0.02146912 C3.98544998 -0.0189917 5.0437149 -0.01651428 6.13404846 -0.01396179 C7.80755875 -0.02162819 7.80755875 -0.02162819 9.51487732 -0.02944946 C13.21293969 -0.04338076 16.91081644 -0.04238603 20.60890198 -0.04008484 C23.1733609 -0.04396977 25.73781918 -0.04830401 28.30227661 -0.05307007 C33.68160864 -0.06053987 39.06086837 -0.06037327 44.44020081 -0.05497742 C50.65743961 -0.04893696 56.87445214 -0.06124981 63.09165233 -0.08254749 C69.0733566 -0.10228478 75.05494231 -0.10533758 81.03668404 -0.10181236 C83.58164565 -0.1023267 86.12661079 -0.10758546 88.67155266 -0.11762428 C92.22693815 -0.12992717 95.78179674 -0.12323357 99.33717346 -0.11161804 C100.39341415 -0.11926178 101.44965485 -0.12690552 102.53790283 -0.13478088 C103.50669373 -0.12776657 104.47548462 -0.12075226 105.47363281 -0.11352539 C106.31409873 -0.11369313 107.15456465 -0.11386087 108.02049923 -0.1140337 C110.8605881 0.3527891 112.22080013 1.29541464 114.30030823 3.26069641 C115.86871899 7.96592871 115.60870018 12.70670075 115.67530823 17.63569641 C115.73138245 19.19804016 115.73138245 19.19804016 115.78858948 20.79194641 C115.80019104 21.79999329 115.8117926 22.80804016 115.82374573 23.84663391 C115.85347473 25.22407776 115.85347473 25.22407776 115.88380432 26.62934875 C115.00784851 30.57957963 113.53555464 31.82517418 110.30030823 34.26069641 C106.61746789 35.00597027 102.9863869 34.93348028 99.23951721 34.89179993 C98.12355164 34.89895523 97.00758606 34.90611053 95.85780334 34.91348267 C92.17025277 34.93038693 88.48391477 34.91095643 84.79640198 34.88960266 C82.23480122 34.89043113 79.67320052 34.89288968 77.11160278 34.89691162 C71.74407032 34.89977076 66.37696708 34.88558482 61.00953674 34.85762024 C54.80691884 34.82555317 48.60492955 34.82559126 42.40226692 34.84283501 C36.43013366 34.85870513 30.4581931 34.85186698 24.48605537 34.83489799 C21.94668659 34.82970874 19.4072997 34.83020695 16.86793327 34.83644295 C13.3221251 34.84188206 9.77739062 34.82156043 6.23170471 34.79414368 C4.65205681 34.8039325 4.65205681 34.8039325 3.04049683 34.81391907 C-4.04678969 34.72055348 -4.04678969 34.72055348 -7.32040405 32.41485596 C-10.38254501 27.63243088 -9.88329777 22.86066046 -9.88719177 17.38569641 C-9.89943787 16.48721985 -9.91168396 15.58874329 -9.92430115 14.66304016 C-9.94335754 6.06225634 -9.94335754 6.06225634 -7.69969177 2.26069641 C-4.49622435 0.12505146 -3.67928964 0.00899084 0 0 Z " fill="#000000" transform="translate(47.69969177246094,109.73930358886719)"/>
<path d="M0 0 C1.12557312 -0.0071553 2.25114624 -0.01431061 3.41082764 -0.02168274 C7.13627547 -0.03860939 10.86052674 -0.0191422 14.5859375 0.00219727 C17.17138773 0.00136894 19.75683792 -0.00108905 22.34228516 -0.00511169 C27.7628703 -0.00797245 33.18301137 0.00623072 38.60351562 0.03417969 C44.86802686 0.06623168 51.13191559 0.06621588 57.39647102 0.04896492 C63.42576366 0.0330942 69.45476669 0.03993388 75.48406982 0.05690193 C78.04855844 0.06209189 80.61306498 0.06159213 83.17755127 0.05535698 C86.75938715 0.04991781 90.34016015 0.07024043 93.921875 0.09765625 C95.51790558 0.08786743 95.51790558 0.08786743 97.1461792 0.07788086 C104.30401336 0.17122304 104.30401336 0.17122304 107.61753845 2.49085999 C110.43814676 6.98452752 109.57080634 12.49297785 109.5234375 17.63110352 C109.55920898 19.41387695 109.55920898 19.41387695 109.59570312 21.23266602 C109.59376953 22.37477539 109.59183594 23.51688477 109.58984375 24.69360352 C109.59056885 25.73645508 109.59129395 26.77930664 109.59204102 27.85375977 C108.9609375 30.63110352 108.9609375 30.63110352 107.10606384 32.77134705 C102.46847401 35.51361771 98.30496971 35.19778495 93.0078125 35.16455078 C91.35090393 35.17747414 91.35090393 35.17747414 89.66052246 35.19065857 C86.01042225 35.21335536 82.3610874 35.20657273 78.7109375 35.19750977 C76.17415132 35.20274343 73.63736709 35.20901896 71.10058594 35.21629333 C65.78440175 35.2267043 60.46849542 35.2224547 55.15234375 35.20751953 C49.01216174 35.19059215 42.87269034 35.20644325 36.73258591 35.23874241 C30.8181361 35.26867258 24.90390711 35.2706204 18.98937988 35.26124382 C16.47594275 35.26042292 13.96249095 35.26731262 11.44909668 35.28201485 C7.93688964 35.29941045 4.42620781 35.28495765 0.9140625 35.26220703 C-0.12609009 35.27389923 -1.16624268 35.28559143 -2.23791504 35.29763794 C-7.00447462 35.23473429 -9.28747108 35.19775704 -13.18418884 32.25987244 C-15.31128386 29.24530524 -15.67076745 27.72557357 -15.66796875 24.06860352 C-15.66990234 23.02446289 -15.67183594 21.98032227 -15.67382812 20.90454102 C-15.64998047 19.82430664 -15.62613281 18.74407227 -15.6015625 17.63110352 C-15.61251953 16.55086914 -15.62347656 15.47063477 -15.63476562 14.35766602 C-15.56346555 6.65725761 -15.56346555 6.65725761 -13.69566345 3.00233459 C-9.5362211 -0.7103039 -5.39557563 -0.05929036 0 0 Z " fill="#000000" transform="translate(1640.0390625,109.368896484375)"/>
<path d="M0 0 C1.70542969 -0.05607422 1.70542969 -0.05607422 3.4453125 -0.11328125 C11.80010981 -0.20153615 11.80010981 -0.20153615 15.89453125 2.66015625 C17.90125114 5.80839626 18.17417408 7.85230092 17.5234375 11.5234375 C14.1297421 22.29473161 8.24365032 32.08881079 0.625 40.375 C-0.06207031 41.14199219 -0.74914062 41.90898437 -1.45703125 42.69921875 C-14.27215477 56.2994129 -31.91946701 64.42062293 -50.40234375 66.7578125 C-53.375 66.375 -53.375 66.375 -56.21484375 64.66015625 C-59.55190205 59.58517248 -59.06253949 54.75018618 -58.9375 48.8125 C-58.94845703 47.67619141 -58.95941406 46.53988281 -58.97070312 45.36914062 C-58.89690647 37.03011889 -58.89690647 37.03011889 -56.55859375 34.0949707 C-53.58667067 31.75404963 -50.40838515 31.03885038 -46.8125 30.125 C-33.38160321 26.27780608 -26.02133898 18.77013782 -18.9453125 6.99609375 C-18.50960937 6.27550781 -18.07390625 5.55492187 -17.625 4.8125 C-17.25890625 4.17183594 -16.8928125 3.53117188 -16.515625 2.87109375 C-13.24621163 -1.41721215 -4.83144526 0.05984898 0 0 Z " fill="#000000" transform="translate(659.375,151.625)"/>
<path d="M0 0 C1.27617188 -0.01836914 1.27617188 -0.01836914 2.578125 -0.03710938 C10.84501356 -0.05642454 10.84501356 -0.05642454 14.625 2.1875 C17.34339751 5.18208658 18.00580301 7.13630966 18.04492188 11.15209961 C18.06083374 12.13669662 18.07674561 13.12129364 18.09313965 14.13572693 C18.09334106 15.19308548 18.09354248 16.25044403 18.09375 17.33984375 C18.10517029 18.97826988 18.10517029 18.97826988 18.11682129 20.64979553 C18.12762229 22.95880854 18.13047541 25.26787041 18.12597656 27.5769043 C18.12500448 31.10873932 18.16662423 34.63840066 18.2109375 38.16992188 C18.21614466 40.41405797 18.21883269 42.65820162 18.21875 44.90234375 C18.2433429 46.48534523 18.2433429 46.48534523 18.26843262 48.10032654 C18.19948392 55.41907403 18.19948392 55.41907403 15.27539062 59.33032227 C10.41845718 62.73366537 6.01395846 62.4030761 0.3125 62.4375 C-0.52990234 62.458125 -1.37230469 62.47875 -2.24023438 62.5 C-7.34338259 62.53191961 -11.03214797 62.17699814 -15.375 59.1875 C-17.26859751 56.18679737 -17.63720481 53.83064402 -17.68139648 50.31469727 C-17.69738388 49.350121 -17.71337128 48.38554474 -17.72984314 47.39173889 C-17.73520584 46.35625412 -17.74056854 45.32076935 -17.74609375 44.25390625 C-17.75512222 43.18381821 -17.7641507 42.11373016 -17.77345276 41.01121521 C-17.78795264 38.74928586 -17.79684134 36.4873146 -17.80053711 34.2253418 C-17.81244476 30.76604667 -17.86164475 27.30852872 -17.91210938 23.84960938 C-17.92157241 21.65105037 -17.92880802 19.45248041 -17.93359375 17.25390625 C-17.95312607 16.22044571 -17.97265839 15.18698517 -17.99278259 14.12220764 C-17.94774437 6.95098045 -17.94774437 6.95098045 -15.02758789 3.05834961 C-10.14563723 -0.38485223 -5.7362982 0.00430653 0 0 Z " fill="#000000" transform="translate(1133.375,153.8125)"/>
<path d="M0 0 C1.02416016 -0.01611328 2.04832031 -0.03222656 3.10351562 -0.04882812 C8.63104769 -0.05240582 12.86372046 0.05009535 17.5625 3.3125 C20.7140165 8.03977475 19.89638076 13.09241602 19.87817383 18.65429688 C19.87502149 20.67373001 19.89845198 22.69168625 19.92382812 24.7109375 C19.92447266 25.9896875 19.92511719 27.2684375 19.92578125 28.5859375 C19.92876221 29.75560059 19.93174316 30.92526367 19.93481445 32.13037109 C19.52219791 35.65695737 18.68951093 37.49582472 16.5625 40.3125 C11.61419543 43.61136971 6.00158454 42.68145625 0.1875 42.6875 C-1.04484375 42.71199219 -2.2771875 42.73648438 -3.546875 42.76171875 C-4.73539063 42.76558594 -5.92390625 42.76945312 -7.1484375 42.7734375 C-8.77724854 42.78576416 -8.77724854 42.78576416 -10.43896484 42.79833984 C-14.14847614 42.19730357 -15.79588334 40.9410364 -18.4375 38.3125 C-20.23895765 32.90812705 -19.66485608 27.09281834 -19.6875 21.4375 C-19.708125 20.15746094 -19.72875 18.87742188 -19.75 17.55859375 C-19.75773437 15.70814453 -19.75773437 15.70814453 -19.765625 13.8203125 C-19.7749707 12.69254395 -19.78431641 11.56477539 -19.79394531 10.40283203 C-19.38679069 6.87285722 -18.66626366 5.07143006 -16.4375 2.3125 C-11.25079199 -0.53591597 -5.76139956 -0.01806081 0 0 Z " fill="#000000" transform="translate(1343.4375,172.6875)"/>
<path d="M0 0 C1.14069946 -0.00525696 2.28139893 -0.01051392 3.45666504 -0.01593018 C7.21604221 -0.02910158 10.97499374 -0.0204018 14.734375 -0.01025391 C17.35319093 -0.01227545 19.97200631 -0.01518756 22.59082031 -0.01895142 C28.07491644 -0.02439919 33.5588911 -0.01724319 39.04296875 -0.00292969 C45.37044128 0.01339506 51.69762375 0.00810585 58.02508926 -0.0084089 C64.1285408 -0.02369736 70.2318644 -0.02203582 76.33532715 -0.0132637 C78.92525269 -0.01126446 81.51518566 -0.01371126 84.10510254 -0.02070236 C87.72651697 -0.02833286 91.3473768 -0.01668924 94.96875 0 C96.0359729 -0.00607269 97.1031958 -0.01214539 98.20275879 -0.0184021 C104.05892006 0.0315185 108.33644179 0.50555783 113.484375 3.38818359 C116.3582619 7.62006101 115.77981286 12.94303006 115.734375 17.88818359 C115.74210938 18.72994141 115.74984375 19.57169922 115.7578125 20.43896484 C115.7321858 28.57544122 115.7321858 28.57544122 113.484375 32.38818359 C110.44093255 35.17134611 108.45723497 35.76397669 104.3674469 35.76913452 C103.33423309 35.77759399 102.30101929 35.78605347 101.23649597 35.79476929 C100.10859146 35.78869659 98.98068695 35.7826239 97.81860352 35.77636719 C96.62636169 35.78162415 95.43411987 35.7868811 94.20574951 35.79229736 C90.93910251 35.80323818 87.67282023 35.80067415 84.40617871 35.79116011 C80.98520983 35.78355922 77.56426514 35.79061047 74.14329529 35.7953186 C68.39748772 35.80077566 62.65179586 35.79358669 56.90600586 35.77929688 C50.26784437 35.76297812 43.62995942 35.76825326 36.99180466 35.78477609 C31.28890894 35.79840172 25.58609636 35.80030515 19.88318962 35.79246008 C16.47870124 35.78778845 13.07434272 35.78714442 9.66986275 35.79706955 C5.87289816 35.80467977 2.07646591 35.79308442 -1.72045898 35.77636719 C-3.4092794 35.78547623 -3.4092794 35.78547623 -5.13221741 35.79476929 C-6.16825104 35.78630981 -7.20428467 35.77785034 -8.27171326 35.76913452 C-9.16895331 35.76800344 -10.06619337 35.76687237 -10.99062252 35.76570702 C-14.08468895 35.30310052 -15.97687441 34.18525827 -18.515625 32.38818359 C-20.46440889 29.5299917 -20.77142955 27.21620779 -20.78125 23.79833984 C-20.78382812 22.93144531 -20.78640625 22.06455078 -20.7890625 21.17138672 C-20.78132813 20.27355469 -20.77359375 19.37572266 -20.765625 18.45068359 C-20.77335937 17.55671875 -20.78109375 16.66275391 -20.7890625 15.74169922 C-20.76203605 6.64054245 -20.76203605 6.64054245 -18.515625 3.38818359 C-12.40006724 -0.0315877 -6.90130501 -0.03926968 0 0 Z " fill="#000000" transform="translate(58.515625,180.61181640625)"/>
<path d="M0 0 C0.99955719 -0.00426498 1.99911438 -0.00852997 3.02896118 -0.01292419 C4.11946274 -0.01247101 5.20996429 -0.01201782 6.33351135 -0.0115509 C7.48673889 -0.01490952 8.63996643 -0.01826813 9.82814026 -0.02172852 C13.64577812 -0.03123873 17.46337214 -0.03318159 21.28102112 -0.03425598 C23.2616313 -0.03665653 25.24224149 -0.03905875 27.22285134 -0.0417164 C33.45000818 -0.04985447 39.67715058 -0.05230119 45.90431213 -0.05158997 C52.32428799 -0.05098907 58.74417985 -0.06154476 65.16413444 -0.07733363 C70.68017517 -0.09041518 76.19618845 -0.09577362 81.71224457 -0.09513456 C85.0049386 -0.09487978 88.29754114 -0.09864043 91.59022331 -0.10831261 C95.26253646 -0.11809073 98.93463233 -0.11524304 102.60694885 -0.10920715 C103.69542618 -0.11482666 104.7839035 -0.12044617 105.90536499 -0.12623596 C107.40893051 -0.11994423 107.40893051 -0.11994423 108.94287109 -0.11352539 C109.81061378 -0.11407016 110.67835646 -0.11461493 111.57239437 -0.1151762 C115.32130203 0.26372705 118.14038534 1.24125021 120.82032776 3.91496277 C123.20465162 8.27048745 122.50388372 13.28371581 122.47242737 18.13371277 C122.49240784 19.22683777 122.51238831 20.31996277 122.53297424 21.44621277 C122.53200745 23.02402527 122.53200745 23.02402527 122.53102112 24.63371277 C122.53287415 25.59277527 122.53472717 26.55183777 122.53663635 27.53996277 C121.89516823 30.85624371 120.60945015 32.02054495 118.03492737 34.13371277 C115.56273713 35.36980789 113.92438478 35.26499978 111.1585083 35.27415466 C110.12804382 35.27986481 109.09757935 35.28557495 108.03588867 35.29145813 C106.90079361 35.29257599 105.76569855 35.29369385 104.59620667 35.29484558 C103.4042569 35.29981049 102.21230713 35.30477539 100.98423767 35.30989075 C97.70932566 35.32201231 94.43444937 35.32946107 91.15951896 35.33390141 C89.11350271 35.33683153 87.06749208 35.34093625 85.02147865 35.34540558 C78.62011703 35.35908305 72.21876823 35.3687481 65.817393 35.37260747 C58.42786629 35.377087 51.03852466 35.39462878 43.64905423 35.42360806 C37.93772652 35.44522852 32.22645086 35.45531196 26.51508266 35.45664859 C23.10383131 35.4576965 19.6927539 35.46360087 16.28154564 35.4814682 C12.47483099 35.49848597 8.66856871 35.49665854 4.86183167 35.49015808 C3.7328093 35.49937286 2.60378693 35.50858765 1.44055176 35.51808167 C0.40162781 35.51251251 -0.63729614 35.50694336 -1.70770264 35.50120544 C-3.05745918 35.50340528 -3.05745918 35.50340528 -4.43448353 35.50564957 C-7.53781752 35.0495328 -9.43029331 33.95150708 -11.96507263 32.13371277 C-14.07577855 27.91230093 -13.23883526 22.39686792 -13.27757263 17.75871277 C-13.30657654 16.60886902 -13.33558044 15.45902527 -13.36546326 14.27433777 C-13.37384216 13.16832214 -13.38222107 12.06230652 -13.39085388 10.92277527 C-13.4054364 9.90908875 -13.42001892 8.89540222 -13.43504333 7.85099792 C-12.83504503 4.3819168 -11.73321492 3.25108173 -8.96507263 1.13371277 C-5.94330772 0.14564713 -3.16641599 0.00611786 0 0 Z " fill="#000000" transform="translate(1637.965072631836,180.8662872314453)"/>
</svg>
