<?xml version="1.0" encoding="UTF-8"?>
<svg version="1.1" xmlns="http://www.w3.org/2000/svg" width="512" height="512">
<path d="M0 0 C10.23 0 20.46 0 31 0 C31 0.66 31 1.32 31 2 C31.83660156 1.97679688 32.67320312 1.95359375 33.53515625 1.9296875 C42.58029294 1.78945282 51.07150812 2.59945225 60 4 C60 4.66 60 5.32 60 6 C60.6290625 6.04898438 61.258125 6.09796875 61.90625 6.1484375 C67.46913314 6.63435199 72.61993052 7.50553626 78 9 C78 9.66 78 10.32 78 11 C79.36125 11.2165625 79.36125 11.2165625 80.75 11.4375 C83.21476956 11.86409473 85.58847107 12.35074221 88 13 C88 13.66 88 14.32 88 15 C92.455 15.99 92.455 15.99 97 17 C97 17.66 97 18.32 97 19 C97.886875 19.12375 98.77375 19.2475 99.6875 19.375 C102.7284206 19.9487586 105.22337139 20.65135182 108 22 C108.33 22.66 108.66 23.32 109 24 C110.64363134 24.72159424 112.31050386 25.39351421 114 26 C114 26.66 114 27.32 114 28 C115.65 28.66 117.3 29.32 119 30 C119 30.66 119 31.32 119 32 C119.5775 32.12375 120.155 32.2475 120.75 32.375 C123.02335767 33.00648824 124.9253529 33.88858191 127 35 C127 35.66 127 36.32 127 37 C128.65 37.66 130.3 38.32 132 39 C132 39.66 132 40.32 132 41 C133.32 41.66 134.64 42.32 136 43 C136 43.66 136 44.32 136 45 C136.59039062 45.11085937 137.18078125 45.22171875 137.7890625 45.3359375 C143.93151306 47.18084315 149.4034753 53.88845574 153 59 C153 59.66 153 60.32 153 61 C153.66 61 154.32 61 155 61 C158 64.46153846 158 64.46153846 158 67 C158.66 67 159.32 67 160 67 C160.4021875 68.4540625 160.4021875 68.4540625 160.8125 69.9375 C161.204375 70.948125 161.59625 71.95875 162 73 C162.99 73.33 163.98 73.66 165 74 C165.33 75.98 165.66 77.96 166 80 C166.99 80.33 167.98 80.66 169 81 C170.70533217 84.32091002 171 86.18492784 171 90 C171.66 90 172.32 90 173 90 C179.86145189 108.75463516 176.45546545 131.8098258 173 151 C172.34 151 171.68 151 171 151 C170.95101563 151.56847656 170.90203125 152.13695312 170.8515625 152.72265625 C170.36856919 157.71081129 169.52361837 162.22599578 168 167 C167.34 167 166.68 167 166 167 C165.855625 167.928125 165.71125 168.85625 165.5625 169.8125 C165 173 165 173 164 176 C163.34 176 162.68 176 162 176 C161.5978125 177.60875 161.5978125 177.60875 161.1875 179.25 C160.09722048 182.69298795 159.1966676 184.27613218 157 187 C155.98308736 188.99145391 154.98357352 190.99187074 154 193 C152.4375 195.875 152.4375 195.875 151 198 C150.34 198 149.68 198 149 198 C148.34 199.65 147.68 201.3 147 203 C146.34 203 145.68 203 145 203 C144.87625 203.5775 144.7525 204.155 144.625 204.75 C143.39383619 209.18218971 141.47759666 211.95710292 138 215 C137.34 215 136.68 215 136 215 C135.814375 215.70125 135.62875 216.4025 135.4375 217.125 C133.73977458 220.52045085 131.77211691 222.0513934 128.859375 224.3984375 C127.01855895 225.98401435 125.53772012 227.62332006 124 229.5 C121.49558199 232.53727291 118.77031264 234.95733188 115.734375 237.44921875 C113.32379828 239.60462181 111.35392461 242.04402289 109.359375 244.58203125 C108 246 108 246 105 247 C103.55384364 248.57273974 103.55384364 248.57273974 102.1875 250.4375 C99.43229611 253.81951278 97.23343982 254.81857493 93 256 C92.67 256.99 92.34 257.98 92 259 C90.66666667 259.33333333 89.33333333 259.66666667 88 260 C87.67 260.99 87.34 261.98 87 263 C85.68352881 263.69937532 84.34977849 264.36729133 83 265 C82.67 265.66 82.34 266.32 82 267 C79.37418862 268.57548683 78.12900213 269 75 269 C74.34 270.32 73.68 271.64 73 273 C72.01 273 71.02 273 70 273 C69.67 273.99 69.34 274.98 69 276 C66.39757586 277.64820195 65.13751221 278 62 278 C62 278.66 62 279.32 62 280 C59.09399739 281.25664978 57.20395416 282 54 282 C54 282.66 54 283.32 54 284 C52.54293274 284.50367757 51.08429904 285.00282556 49.625 285.5 C48.40683594 285.91765625 48.40683594 285.91765625 47.1640625 286.34375 C45 287 45 287 43 287 C43 287.66 43 288.32 43 289 C30.40106459 291.76682503 16.49254039 292.70149345 4 289 C4 288.34 4 287.68 4 287 C3.4225 286.87625 2.845 286.7525 2.25 286.625 C-1.7172184 285.52299489 -4.16236742 283.94213463 -7 281 C-7.07347656 282.76923828 -7.07347656 282.76923828 -7.1484375 284.57421875 C-7.63022156 295.64186913 -8.2634999 306.69634958 -9 317.75 C-9.0829834 319.04123779 -9.1659668 320.33247559 -9.25146484 321.6628418 C-9.33348145 322.86207275 -9.41549805 324.06130371 -9.5 325.296875 C-9.5721875 326.37291992 -9.644375 327.44896484 -9.71875 328.55761719 C-10 331 -10 331 -11 332 C-11.18096168 333.50129208 -11.29827081 335.0103356 -11.38891602 336.51977539 C-11.44890274 337.48069595 -11.50888947 338.44161652 -11.57069397 339.43165588 C-11.63115402 340.476436 -11.69161407 341.52121613 -11.75390625 342.59765625 C-11.81907944 343.66165146 -11.88425262 344.72564667 -11.95140076 345.82188416 C-12.15946506 349.23517457 -12.36104675 352.64881363 -12.5625 356.0625 C-12.70204857 358.37046847 -12.84201693 360.6784116 -12.98242188 362.98632812 C-13.32649415 368.65726654 -13.66523864 374.32850476 -14 380 C-14.66 380 -15.32 380 -16 380 C-15.98839844 381.16273438 -15.97679687 382.32546875 -15.96484375 383.5234375 C-15.90680738 392.00835548 -15.97529064 400.46336939 -16.4375 408.9375 C-16.47673584 409.68757324 -16.51597168 410.43764648 -16.55639648 411.21044922 C-16.7584774 414.59346225 -17.11422964 417.73296189 -18 421 C-22.30499734 421.04967599 -26.60983993 421.08584945 -30.91503906 421.10986328 C-32.37763376 421.11988105 -33.84020863 421.13349912 -35.30273438 421.15087891 C-37.41281039 421.17531439 -39.52262012 421.18652537 -41.6328125 421.1953125 C-42.90012207 421.20578613 -44.16743164 421.21625977 -45.47314453 421.22705078 C-48.98987733 421.00065167 -51.72916487 420.27223601 -55 419 C-55 418.34 -55 417.68 -55 417 C-55.63808594 416.80664062 -56.27617187 416.61328125 -56.93359375 416.4140625 C-58.17302734 416.02347656 -58.17302734 416.02347656 -59.4375 415.625 C-60.26121094 415.36976563 -61.08492188 415.11453125 -61.93359375 414.8515625 C-64 414 -64 414 -65 412 C-65.61617188 411.70222656 -66.23234375 411.40445312 -66.8671875 411.09765625 C-69.28214849 409.85479171 -70.44124925 408.54880002 -72.125 406.4375 C-74.20903634 403.78974334 -74.20903634 403.78974334 -77 402 C-77.66666667 400.66666667 -78.33333333 399.33333333 -79 398 C-79.66 397.67 -80.32 397.34 -81 397 C-82.57548683 394.37418862 -83 393.12900213 -83 390 C-83.66 390 -84.32 390 -85 390 C-87.03435531 386.27034861 -88 384.33094958 -88 380 C-88.66 380 -89.32 380 -90 380 C-92.28571429 371.57142857 -92.28571429 371.57142857 -92 367 C-92.66 367 -93.32 367 -94 367 C-94.79203628 361.91499399 -95.27502892 356.88677828 -95.5625 351.75 C-95.60568359 351.06292969 -95.64886719 350.37585938 -95.69335938 349.66796875 C-96.32284204 338.81688656 -95.83097298 328.1432222 -95 317.3125 C-94.90460938 316.02666016 -94.80921875 314.74082031 -94.7109375 313.41601562 C-94.47755759 310.2770558 -94.24050669 307.13842042 -94 304 C-93.34 304 -92.68 304 -92 304 C-92.01160156 303.23341064 -92.02320313 302.46682129 -92.03515625 301.67700195 C-92.10700245 293.13436075 -91.66218056 284.70188924 -91 276.1875 C-90.90460938 274.91068359 -90.80921875 273.63386719 -90.7109375 272.31835938 C-90.47824311 269.21188922 -90.24120375 266.10581899 -90 263 C-89.34 263 -88.68 263 -88 263 C-88.01740234 262.14664062 -88.03480469 261.29328125 -88.05273438 260.4140625 C-88.1953645 247.2377555 -87.33627679 234.1446996 -86.5 221 C-86.35501922 218.66409036 -86.21048468 216.32815297 -86.06640625 213.9921875 C-85.7160759 208.32779524 -85.36026019 202.66376894 -85 197 C-84.34 197 -83.68 197 -83 197 C-83.01160156 195.87424561 -83.02320313 194.74849121 -83.03515625 193.58862305 C-83.12120673 181.29771814 -82.67013641 169.08296756 -82 156.8125 C-81.90319295 154.97202897 -81.80683692 153.13153417 -81.7109375 151.29101562 C-81.47912554 146.86038732 -81.24132201 142.43012007 -81 138 C-80.34 138 -79.68 138 -79 138 C-79.01160156 136.70626465 -79.02320313 135.4125293 -79.03515625 134.07958984 C-79.12334501 119.56863818 -78.65752343 105.11919941 -78 90.625 C-77.90320926 88.41277947 -77.80685315 86.20053989 -77.7109375 83.98828125 C-77.47894077 78.65862521 -77.24168557 73.32922503 -77 68 C-76.34 68 -75.68 68 -75 68 C-75 65.03 -75 62.06 -75 59 C-75.99 59 -76.98 59 -78 59 C-80.6875 56.625 -80.6875 56.625 -83 54 C-83 53.34 -83 52.68 -83 52 C-83.556875 51.79375 -84.11375 51.5875 -84.6875 51.375 C-87.85840149 49.48959912 -89.68729479 46.84640641 -92 44 C-92.99 43.34 -93.98 42.68 -95 42 C-95.495 40.515 -95.495 40.515 -96 39 C-96.99 38.34 -97.98 37.68 -99 37 C-100.61785127 34.36034793 -101 33.15987325 -101 30 C-101.99 29.67 -102.98 29.34 -104 29 C-104.33 26.69 -104.66 24.38 -105 22 C-105.66 22 -106.32 22 -107 22 C-108.49594333 17.32517708 -108.54799337 12.64398011 -107 8 C-104.01540871 6.04457812 -102.73585209 6 -99 6 C-99 5.34 -99 4.68 -99 4 C-90.96480014 3.73283115 -82.92942916 3.47182693 -74.89380741 3.21769714 C-71.1583564 3.0993893 -67.42298323 2.97932535 -63.68774414 2.85449219 C-42.45047032 2.14648015 -21.24930184 1.86363776 0 2 C0 1.34 0 0.68 0 0 Z M-9 73 C-8.06630342 77.63685174 -8.06630342 77.63685174 -5.5 81.4375 C-3.75814029 83.25193719 -3.42144987 84.55559077 -3 87 C-2.34 87 -1.68 87 -1 87 C-0.34 90.96 0.32 94.92 1 99 C1.66 99 2.32 99 3 99 C3.98689213 109.72093071 4.15526939 120.36360191 4.13037109 131.12158203 C4.12502211 133.86366335 4.13034297 136.60557994 4.13671875 139.34765625 C4.13996952 148.81452658 3.89297136 158.19804922 3.22265625 167.64111328 C2.959529 171.61052637 2.89925893 175.52292912 2.9375 179.5 C2.95103516 181.37171875 2.95103516 181.37171875 2.96484375 183.28125 C2.97644531 184.1784375 2.98804688 185.075625 3 186 C2.34 186 1.68 186 1 186 C0.7090697 189.89157962 0.42459075 193.78357782 0.14550781 197.67602539 C0.00388007 199.63386256 -0.1425241 201.59135238 -0.2890625 203.54882812 C-0.87095028 211.71603869 -1.12485053 219.81275291 -1 228 C-1.66 228 -2.32 228 -3 228 C-3.495 235.425 -3.495 235.425 -4 243 C-2.02 242.01 -2.02 242.01 0 241 C0 240.34 0 239.68 0 239 C0.5775 238.87625 1.155 238.7525 1.75 238.625 C5.82826404 237.49214888 7.60388152 236.59417771 10 233 C10.99 232.67 11.98 232.34 13 232 C14.02991136 231.03083408 15.02745049 230.02671683 16 229 C17.84340951 227.44869392 19.70541209 225.92292557 21.57421875 224.40234375 C22.04472656 223.93957031 22.51523437 223.47679687 23 223 C23 222.34 23 221.68 23 221 C23.556875 220.938125 24.11375 220.87625 24.6875 220.8125 C27.99068042 219.6519231 29.71894733 217.59786554 32 215 C32 214.34 32 213.68 32 213 C34.33214148 211.79371992 36.49642139 210.8345262 39 210 C40.52175475 208.54015425 40.52175475 208.54015425 41.9375 206.75 C42.46214844 206.11835938 42.98679687 205.48671875 43.52734375 204.8359375 C44.70643685 203.36598059 45.85796083 201.87392641 47 200.375 C49 198 49 198 52.0625 195.5625 C55.15169237 192.86767261 56.29095627 190.66223657 58 187 C58.99 186.34 59.98 185.68 61 185 C61.495 183.515 61.495 183.515 62 182 C62.66 181.67 63.32 181.34 64 181 C65.57548683 178.37418862 66 177.12900213 66 174 C66.99 173.67 67.98 173.34 69 173 C70.22520264 169.99152582 70.22520264 169.99152582 71 167 C71.66 167 72.32 167 73 167 C73.16435547 166.15115234 73.16435547 166.15115234 73.33203125 165.28515625 C73.49058594 164.55167969 73.64914062 163.81820312 73.8125 163.0625 C74.03873047 161.96615234 74.03873047 161.96615234 74.26953125 160.84765625 C74.51058594 160.23792969 74.75164062 159.62820312 75 159 C75.99 158.67 76.98 158.34 78 158 C79.12260381 155.33381596 80.08095703 152.7335637 81 150 C81.55874634 148.56103682 82.12109176 147.12346456 82.6875 145.6875 C84.16766233 142.18130153 84.16766233 142.18130153 84 139 C84.66 139 85.32 139 86 139 C87.72928837 132.08840962 87.72928837 132.08840962 88 125 C88.66 125 89.32 125 90 125 C91.66482452 114.80294981 91.66482452 104.19705019 90 94 C89.34 94 88.68 94 88 94 C87.93941406 93.38511719 87.87882812 92.77023438 87.81640625 92.13671875 C87.73261719 91.32847656 87.64882813 90.52023438 87.5625 89.6875 C87.44068359 88.48673828 87.44068359 88.48673828 87.31640625 87.26171875 C87.04734307 84.83912821 87.04734307 84.83912821 86 82 C85.34 82 84.68 82 84 82 C83.731875 81.0925 83.46375 80.185 83.1875 79.25 C81.7362388 75.18459272 81.7362388 75.18459272 79 72 C76.1372639 71.61345099 73.65927669 71.48362458 70.79663086 71.5300293 C69.9605983 71.5278389 69.12456573 71.5256485 68.26319885 71.52339172 C65.49667956 71.52107808 62.73122135 71.54734857 59.96484375 71.57421875 C58.04578489 71.57914099 56.12672124 71.58244095 54.20765686 71.58418274 C50.18507569 71.5918276 46.16284972 71.61240419 42.14038086 71.64331055 C36.97617138 71.68291229 31.81219308 71.70092284 26.64784908 71.71061993 C21.73264911 71.72058008 16.81750601 71.74048103 11.90234375 71.76171875 C10.95995283 71.7651145 10.01756191 71.76851025 9.04661369 71.7720089 C6.38899799 71.78355057 3.73153091 71.80206584 1.07397461 71.82299805 C0.28171478 71.82568695 -0.51054504 71.82837585 -1.32681274 71.83114624 C-5.29304479 71.78754557 -5.29304479 71.78754557 -9 73 Z " fill="#FFFFFF" transform="translate(336,91)"/>
<path d="M0 0 C26.4 0 52.8 0 80 0 C80 0.66 80 1.32 80 2 C81.12148438 2.09087891 81.12148438 2.09087891 82.265625 2.18359375 C83.25046875 2.26738281 84.2353125 2.35117187 85.25 2.4375 C86.71179688 2.55931641 86.71179688 2.55931641 88.203125 2.68359375 C90.56461753 2.95074584 92.71901065 3.35371968 95 4 C95 4.66 95 5.32 95 6 C96.051875 6.12375 97.10375 6.2475 98.1875 6.375 C101.45958771 6.91140782 104.00536076 7.63880035 107 9 C107 9.66 107 10.32 107 11 C107.56589844 11.12117187 108.13179687 11.24234375 108.71484375 11.3671875 C109.44832031 11.53476563 110.18179688 11.70234375 110.9375 11.875 C111.66839844 12.03742187 112.39929688 12.19984375 113.15234375 12.3671875 C115 13 115 13 116 15 C116.99 15.495 116.99 15.495 118 16 C120 17 120 17 121 19 C121.845625 19.495 122.69125 19.99 123.5625 20.5 C124.366875 20.995 125.17125 21.49 126 22 C126 22.66 126 23.32 126 24 C127.98 24.99 127.98 24.99 130 26 C130 26.99 130 27.98 130 29 C130.99 29.33 131.98 29.66 133 30 C134.64820195 32.60242414 135 33.86248779 135 37 C135.66 37 136.32 37 137 37 C138.49821059 40.37097383 139 42.20442119 139 46 C139.66 46 140.32 46 141 46 C142.00926479 50.15626368 142.10239579 54.04365094 142.0625 58.3125 C142.05347656 59.56675781 142.04445312 60.82101563 142.03515625 62.11328125 C142.01775391 63.54220703 142.01775391 63.54220703 142 65 C141.01 65 140.02 65 139 65 C139 65.66 139 66.32 139 67 C134.05 67 129.1 67 124 67 C124 66.34 124 65.68 124 65 C117.4 65 110.8 65 104 65 C104 65.66 104 66.32 104 67 C98.68406762 67.28928151 93.36791196 67.57390317 88.05151367 67.85449219 C86.24871337 67.95026445 84.4459764 68.04723754 82.64331055 68.14550781 C72.41787892 68.70207116 62.24400319 69.16910885 52 69 C52 69.66 52 70.32 52 71 C47.7504759 71.43297473 43.50040365 71.85997303 39.24975586 72.28173828 C37.80753882 72.42565412 36.36547614 72.57112651 34.92358398 72.71826172 C32.83617413 72.93098217 30.74825021 73.13786601 28.66015625 73.34375 C27.40855713 73.46943359 26.15695801 73.59511719 24.86743164 73.72460938 C20.58814096 74.0293275 16.29012609 74 12 74 C11.67 80.27 11.34 86.54 11 93 C10.34 93 9.68 93 9 93 C9.02501587 94.03785645 9.02501587 94.03785645 9.05053711 95.09667969 C9.17613616 104.92305036 8.51162527 114.64938559 7.77319336 124.44287109 C7.55982342 127.28566085 7.3566454 130.1290629 7.15429688 132.97265625 C7.02143327 134.77869007 6.88799179 136.58468149 6.75390625 138.390625 C6.6934462 139.24150696 6.63298615 140.09238892 6.57069397 140.96905518 C6.11503239 146.88496761 6.11503239 146.88496761 5 148 C4.78855708 150.81630224 4.62371843 153.61717799 4.5 156.4375 C4.13440018 164.73119964 4.13440018 164.73119964 3 167 C5.97 167 8.94 167 12 167 C12 166.34 12 165.68 12 165 C21.42786729 164.0931565 30.77157133 163.84291495 40.23242188 163.86962891 C42.52480479 163.87505875 44.81699746 163.86961109 47.109375 163.86328125 C48.58333376 163.86394102 50.0572924 163.86522007 51.53125 163.8671875 C52.84673828 163.86831543 54.16222656 163.86944336 55.51757812 163.87060547 C58.48928057 163.98102346 61.11884475 164.30323647 64 165 C64 165.66 64 166.32 64 167 C65.27875 167.144375 66.5575 167.28875 67.875 167.4375 C70.25692894 167.70642746 71.84452691 167.92226346 74 169 C74 169.66 74 170.32 74 171 C74.86882812 171.10183594 75.73765625 171.20367187 76.6328125 171.30859375 C80.22084698 172.04534793 82.70839622 173.24749539 85.875 175.0625 C86.84179688 175.61035156 87.80859375 176.15820312 88.8046875 176.72265625 C89.52914062 177.14417969 90.25359375 177.56570312 91 178 C91 178.66 91 179.32 91 180 C92.65 180.66 94.3 181.32 96 182 C96 182.66 96 183.32 96 184 C96.845625 184.165 97.69125 184.33 98.5625 184.5 C102.69819788 186.30466817 104.45702231 188.53363822 107.26171875 191.97265625 C108.84449949 193.81864098 110.40302584 195.25865887 112.3125 196.75 C114.80678786 198.838241 116.01753052 199.95434461 117 203 C117 204.32 117 205.64 117 207 C117.66 207 118.32 207 119 207 C119 211.29 119 215.58 119 220 C118.34 220 117.68 220 117 220 C116.8453125 220.928125 116.8453125 220.928125 116.6875 221.875 C116 224 116 224 113 226 C111.68 226 110.36 226 109 226 C109 226.66 109 227.32 109 228 C107.73293213 228.08564209 106.46586426 228.17128418 105.16040039 228.25952148 C100.47680656 228.57730571 95.79364646 228.90112503 91.1105957 229.22680664 C89.08043624 229.36713725 87.05016166 229.50581233 85.01977539 229.64282227 C82.10791964 229.83959808 79.19652453 230.04224836 76.28515625 230.24609375 C75.3716188 230.3065538 74.45808136 230.36701385 73.51686096 230.42930603 C69.42648645 230.33540718 69.42648645 230.33540718 66 232 C62.99824278 232.40797692 60.01245293 232.7567247 57 233.0625 C55.76056641 233.19881836 55.76056641 233.19881836 54.49609375 233.33789062 C48.96749133 233.91324596 43.5579534 234.08404163 38 234 C38 234.66 38 235.32 38 236 C25.13 236.99 12.26 237.98 -1 239 C-1.33 250.22 -1.66 261.44 -2 273 C-2.66 273 -3.32 273 -4 273 C-3.99476318 273.60730957 -3.98952637 274.21461914 -3.98413086 274.84033203 C-3.81014583 298.9031217 -4.41559321 322.94606534 -5 347 C-4.401875 346.67 -3.80375 346.34 -3.1875 346 C-1 345 -1 345 2 345 C2.33 344.01 2.66 343.02 3 342 C6.0625 340.8125 6.0625 340.8125 9 340 C9 339.34 9 338.68 9 338 C10.4540625 337.566875 10.4540625 337.566875 11.9375 337.125 C15.10664203 336.35785318 15.10664203 336.35785318 16 334 C18.90259811 332.6250851 20.76138705 332 24 332 C24 331.34 24 330.68 24 330 C28.95 328.515 28.95 328.515 34 327 C34 326.34 34 325.68 34 325 C36.97 324.34 39.94 323.68 43 323 C43 322.34 43 321.68 43 321 C44.2375 320.67 45.475 320.34 46.75 320 C47.44609375 319.814375 48.1421875 319.62875 48.859375 319.4375 C51 319 51 319 55 319 C55 318.34 55 317.68 55 317 C68.30743669 314.02508401 82.75361518 313.52553841 96 317 C96 317.66 96 318.32 96 319 C99.3 319.66 102.6 320.32 106 321 C106 321.66 106 322.32 106 323 C108.31 323.66 110.62 324.32 113 325 C113 325.66 113 326.32 113 327 C114.299375 327.3403125 114.299375 327.3403125 115.625 327.6875 C119.66573255 329.25889599 121.87197109 331.02092484 125 334 C125 334.66 125 335.32 125 336 C125.639375 336.103125 126.27875 336.20625 126.9375 336.3125 C127.618125 336.539375 128.29875 336.76625 129 337 C129.33 337.99 129.66 338.98 130 340 C130.66 340.309375 131.32 340.61875 132 340.9375 C132.66 341.288125 133.32 341.63875 134 342 C134.36162029 343.32594105 134.69728039 344.65938457 135 346 C135.99 346.33 136.98 346.66 138 347 C139.11083501 350.33250502 139.16759585 352.93038958 139.1875 356.4375 C139.20167969 357.57058594 139.21585938 358.70367187 139.23046875 359.87109375 C139.00618084 362.9160873 138.84781576 364.58710297 137 367 C134.8359375 367.828125 134.8359375 367.828125 132.375 368.25 C131.14910156 368.47429687 131.14910156 368.47429687 129.8984375 368.703125 C129.27195313 368.80109375 128.64546875 368.8990625 128 369 C128 369.66 128 370.32 128 371 C125.03 371.66 122.06 372.32 119 373 C119 373.66 119 374.32 119 375 C117.39743892 375.50512244 115.79288208 376.00391627 114.1875 376.5 C113.29417969 376.7784375 112.40085938 377.056875 111.48046875 377.34375 C109 378 109 378 106 378 C106 378.66 106 379.32 106 380 C102.38026598 381.31626692 99.90432869 382 96 382 C96 382.66 96 383.32 96 384 C92.62902617 385.49821059 90.79557881 386 87 386 C87 386.66 87 387.32 87 388 C83.37 388.99 79.74 389.98 76 391 C76 391.66 76 392.32 76 393 C73.03 393.66 70.06 394.32 67 395 C67 395.66 67 396.32 67 397 C63.12315913 398.19287411 60.08378077 399 56 399 C56 399.66 56 400.32 56 401 C54.56445975 401.50559908 53.1264798 402.0042749 51.6875 402.5 C50.48673828 402.91765625 50.48673828 402.91765625 49.26171875 403.34375 C47 404 47 404 44 404 C44 404.66 44 405.32 44 406 C41.03 406.66 38.06 407.32 35 408 C35 408.66 35 409.32 35 410 C32.03 410.66 29.06 411.32 26 412 C26 412.66 26 413.32 26 414 C24.58603098 414.50757862 23.16868271 415.00574925 21.75 415.5 C20.56664063 415.91765625 20.56664063 415.91765625 19.359375 416.34375 C17 417 17 417 13 417 C13 417.66 13 418.32 13 419 C10.03 419.66 7.06 420.32 4 421 C4 421.66 4 422.32 4 423 C-6.4092288 426.90927818 -17.31296551 424.95899814 -28 423 C-28 422.34 -28 421.68 -28 421 C-29.2375 420.855625 -30.475 420.71125 -31.75 420.5625 C-34.56504499 420.21311498 -37.2701497 419.79620634 -40 419 C-40 418.34 -40 417.68 -40 417 C-40.7425 416.87625 -41.485 416.7525 -42.25 416.625 C-44.80141485 416.04513299 -46.7267573 415.26291261 -49 414 C-49 413.34 -49 412.68 -49 412 C-49.639375 411.896875 -50.27875 411.79375 -50.9375 411.6875 C-51.9584375 411.3471875 -51.9584375 411.3471875 -53 411 C-53.495 409.515 -53.495 409.515 -54 408 C-54.99 407.5359375 -54.99 407.5359375 -56 407.0625 C-56.66 406.711875 -57.32 406.36125 -58 406 C-58.36162029 404.67405895 -58.69728039 403.34061543 -59 402 C-59.99 401.67 -60.98 401.34 -62 401 C-62 400.01 -62 399.02 -62 398 C-63.65 397.67 -65.3 397.34 -67 397 C-67 396.34 -67 395.68 -67 395 C-67.639375 394.896875 -68.27875 394.79375 -68.9375 394.6875 C-69.9584375 394.3471875 -69.9584375 394.3471875 -71 394 C-71.33 393.01 -71.66 392.02 -72 391 C-72.598125 390.855625 -73.19625 390.71125 -73.8125 390.5625 C-76.77479483 389.80076704 -78.04920816 388.29914753 -80 386 C-80 385.34 -80 384.68 -80 384 C-80.66 384 -81.32 384 -82 384 C-85 378.25 -85 378.25 -85 376 C-85.66 376 -86.32 376 -87 376 C-88.13764351 371.73383684 -89 368.43513689 -89 364 C-89.66 364 -90.32 364 -91 364 C-93.33666165 349.02246177 -92.86918294 334.4749171 -92.125 319.375 C-92.01825734 317.00005691 -91.91278009 314.6250566 -91.80859375 312.25 C-91.55361667 306.49926005 -91.28314496 300.74941841 -91 295 C-90.34 295 -89.68 295 -89 295 C-89.01160156 293.73526855 -89.02320312 292.47053711 -89.03515625 291.16748047 C-89.13000056 275.79850671 -88.6255963 260.47940037 -88 245.125 C-87.90325217 242.67189049 -87.8068959 240.21876551 -87.7109375 237.765625 C-87.47845349 231.84356472 -87.24120786 225.92171105 -87 220 C-86.34 220 -85.68 220 -85 220 C-85.00785522 219.3585051 -85.01571045 218.71701019 -85.02380371 218.05607605 C-85.22073264 199.14643291 -84.56988132 180.35740736 -83.60931396 161.47808838 C-83.42345952 157.79617799 -83.24532412 154.11389345 -83.06640625 150.43164062 C-82.71819887 143.28739178 -82.36191818 136.14356859 -82 129 C-81.34 129 -80.68 129 -80 129 C-80.01160156 128.16774902 -80.02320312 127.33549805 -80.03515625 126.47802734 C-80.1051262 117.47814317 -79.67641301 108.6011835 -79 99.625 C-78.9031863 98.29169995 -78.8068303 96.95836659 -78.7109375 95.625 C-78.47842388 92.41631209 -78.24138871 89.2080303 -78 86 C-77.34 86 -76.68 86 -76 86 C-76.01160156 85.28457031 -76.02320312 84.56914063 -76.03515625 83.83203125 C-76.04417969 82.83558594 -76.05320312 81.83914062 -76.0625 80.8125 C-76.07410156 79.72195312 -76.08570312 78.63140625 -76.09765625 77.5078125 C-75.99968999 73.98886429 -75.51259132 70.66666316 -75 67.1875 C-74.5567466 62.69961512 -74.5567466 62.69961512 -76.5390625 58.8359375 C-78.61190613 57.07363224 -80.76583962 55.54956444 -83 54 C-84.82206768 52.09577012 -86.36464248 50.07734604 -88 48 C-88.46664062 47.47148438 -88.93328125 46.94296875 -89.4140625 46.3984375 C-93 42.33170391 -93 42.33170391 -93 39 C-93.99 38.67 -94.98 38.34 -96 38 C-97.1875 34.9375 -97.1875 34.9375 -98 32 C-98.66 32 -99.32 32 -100 32 C-104.48854962 17.46564885 -104.48854962 17.46564885 -102.1875 10.5625 C-101 9 -101 9 -98 8 C-95.38787187 7.77718091 -92.79255663 7.60062159 -90.17578125 7.46484375 C-89.39671921 7.42186661 -88.61765717 7.37888947 -87.81498718 7.33460999 C-86.15826325 7.24436818 -84.50142276 7.1562453 -82.84448242 7.07006836 C-80.36663908 6.94033459 -77.88941086 6.801763 -75.41210938 6.66210938 C-65.26246101 6.10944918 -55.16502318 5.88123945 -45 6 C-45 5.34 -45 4.68 -45 4 C-41.00266535 3.70829736 -37.00487621 3.42389635 -33.0065918 3.14550781 C-30.99827708 3.00427412 -28.99034093 2.85768911 -26.98242188 2.7109375 C-17.95995801 2.08716222 -9.04166578 1.88317632 0 2 C0 1.34 0 0.68 0 0 Z " fill="#FFFFFF" transform="translate(103,0)"/>
</svg>
