<?xml version="1.0" standalone="no"?>
<!DOCTYPE svg PUBLIC "-//W3C//DTD SVG 20010904//EN"
 "http://www.w3.org/TR/2001/REC-SVG-20010904/DTD/svg10.dtd">
<svg version="1.0" xmlns="http://www.w3.org/2000/svg"
 width="512.000000pt" height="512.000000pt" viewBox="0 0 512.000000 512.000000"
 preserveAspectRatio="xMidYMid meet">

<g transform="translate(0.000000,512.000000) scale(0.100000,-0.100000)"
fill="#000000" stroke="none">
<path d="M1060 5104 c-91 -7 -241 -20 -335 -28 -93 -8 -232 -18 -308 -22 -76
-4 -140 -11 -143 -15 -3 -5 -53 -9 -110 -9 -104 0 -106 0 -136 -30 -27 -28
-30 -35 -24 -73 13 -85 85 -200 208 -332 l83 -88 -4 -66 c-2 -36 -6 -68 -11
-71 -4 -3 -13 -93 -20 -200 -7 -107 -16 -199 -20 -205 -4 -5 -13 -122 -20
-260 -6 -137 -15 -266 -20 -285 -5 -19 -16 -258 -25 -530 -9 -272 -20 -504
-25 -515 -9 -23 -30 -505 -30 -692 0 -114 13 -215 30 -238 4 -5 13 -32 20 -58
7 -27 19 -51 27 -54 7 -3 13 -11 13 -18 0 -20 104 -117 156 -145 26 -14 54
-38 63 -55 34 -62 139 -145 219 -171 26 -8 61 -21 77 -29 17 -7 58 -16 93 -20
34 -4 62 -11 62 -16 0 -5 27 -9 60 -9 33 0 60 4 60 10 0 6 7 10 15 10 8 0 38
11 67 24 29 13 72 30 96 37 23 6 42 16 42 20 0 4 15 11 33 14 17 4 48 16 67
25 45 23 115 54 160 70 19 7 55 22 80 33 25 11 61 27 80 35 19 8 52 23 72 33
20 11 42 19 47 19 6 0 35 11 65 25 30 14 58 25 61 25 3 0 30 11 58 24 126 57
147 66 158 66 6 0 23 6 37 14 15 8 50 24 77 36 28 11 68 30 90 41 22 10 44 19
49 19 6 0 23 12 38 27 52 50 33 145 -47 229 -28 30 -174 138 -210 156 -16 8
-39 19 -50 25 -58 31 -115 53 -153 59 -23 4 -45 11 -48 15 -7 12 -149 12 -172
0 -9 -5 -47 -14 -83 -20 -37 -6 -80 -18 -95 -26 -16 -8 -36 -15 -44 -15 -9 0
-24 -6 -35 -14 -11 -7 -31 -17 -45 -21 -41 -12 -152 -66 -197 -97 -23 -15 -45
-28 -50 -28 -4 -1 -39 -21 -78 -46 -82 -52 -114 -69 -119 -63 -5 5 9 415 27
793 11 230 18 300 28 307 8 5 41 9 74 9 34 0 65 4 70 8 6 5 80 15 165 22 85 7
160 16 165 20 6 4 69 13 140 19 72 7 139 17 150 22 11 5 96 13 188 17 168 9
169 9 198 38 34 34 45 81 35 147 -5 35 -19 58 -63 107 -49 53 -80 82 -190 170
-7 6 -15 10 -18 10 -4 0 -25 12 -48 28 -68 44 -185 97 -247 111 -60 14 -240
14 -428 0 -84 -6 -156 -9 -159 -5 -4 3 -2 16 4 29 6 12 19 148 28 302 10 154
21 287 25 295 4 8 11 60 14 115 13 185 12 182 59 189 159 21 380 45 422 45 28
1 55 5 60 10 14 13 499 35 623 28 61 -4 114 -2 132 5 29 10 30 12 30 69 0 32
-4 59 -9 59 -4 0 -11 16 -14 36 -9 51 -44 122 -88 176 -22 26 -39 51 -39 57 0
6 -5 11 -11 11 -6 0 -34 20 -62 45 -60 53 -207 128 -287 146 -30 7 -60 16 -65
20 -41 30 -511 37 -815 13z"/>
<path d="M3420 4200 c0 -6 -63 -10 -169 -10 -93 0 -181 -4 -194 -9 -14 -5
-157 -12 -318 -16 -375 -7 -393 -9 -430 -44 -28 -27 -41 -81 -19 -81 6 0 10
-10 10 -22 0 -13 7 -34 15 -48 8 -14 19 -36 25 -50 23 -50 187 -234 253 -282
17 -13 17 -28 2 -308 -27 -523 -51 -915 -57 -930 -3 -8 -14 -159 -23 -335 -10
-176 -21 -327 -25 -335 -4 -8 -13 -109 -20 -225 -7 -115 -16 -212 -20 -215
-15 -10 -39 -472 -30 -590 8 -123 18 -189 30 -205 4 -5 10 -23 14 -40 8 -36
65 -153 86 -177 8 -9 31 -37 50 -63 28 -38 93 -97 165 -153 6 -4 38 -20 73
-35 58 -25 74 -27 198 -27 74 0 134 1 135 3 1 4 18 226 37 492 10 143 21 267
24 275 4 8 14 139 23 290 10 151 21 283 26 292 5 9 9 28 9 43 l0 25 48 -38
c27 -20 68 -43 93 -51 24 -7 52 -17 61 -22 23 -12 153 -12 176 0 9 5 44 15 77
21 70 14 209 78 280 130 28 20 61 43 75 50 73 38 284 214 444 370 164 160 276
295 353 427 40 68 133 255 133 267 0 6 7 24 15 39 8 15 22 65 31 110 9 45 21
93 28 106 7 15 11 87 11 195 0 163 -1 175 -29 251 -16 44 -34 87 -41 95 -7 8
-15 22 -18 31 -9 28 -95 149 -150 211 -28 33 -90 93 -137 134 -104 91 -110 97
-130 109 -37 23 -86 54 -95 62 -32 24 -98 58 -320 163 -22 10 -60 24 -85 30
-25 7 -49 16 -55 20 -5 4 -59 16 -120 25 -60 10 -118 21 -127 26 -10 5 -49 9
-88 9 -40 0 -70 4 -70 10 0 6 -45 10 -115 10 -70 0 -115 -4 -115 -10z m761
-743 c44 -70 70 -137 76 -194 3 -29 10 -56 14 -59 12 -7 11 -150 0 -172 -5 -9
-14 -53 -20 -97 -6 -43 -15 -82 -20 -85 -5 -3 -12 -21 -16 -40 -4 -19 -12 -44
-19 -55 -7 -11 -21 -42 -31 -70 -10 -27 -21 -52 -24 -55 -3 -3 -14 -21 -23
-40 -20 -39 -24 -46 -88 -145 -47 -74 -189 -246 -250 -305 -130 -124 -436
-370 -461 -370 -7 0 -9 10 -4 28 4 15 15 113 24 217 9 105 20 197 23 205 15
35 40 581 35 740 -5 156 -21 283 -37 305 -4 6 -13 27 -20 48 -15 47 -56 121
-75 137 -8 7 -15 21 -15 31 0 18 16 19 453 19 l452 -1 26 -42z"/>
</g>
</svg>
